solid OpenSCAD_Model
  facet normal -0 0 1
    outer loop
      vertex 35.3 14.2 85.3
      vertex 37.7 11 85.3
      vertex 37.7 14.2 85.3
    endloop
  endfacet
  facet normal 0 0 1
    outer loop
      vertex 37.7 11 85.3
      vertex 35.3 14.2 85.3
      vertex 35.3 11 85.3
    endloop
  endfacet
  facet normal 0 -1 0
    outer loop
      vertex 35.3 14.2 85.3
      vertex 37.7 14.2 108.6
      vertex 35.3 14.2 108.6
    endloop
  endfacet
  facet normal 0 -1 -0
    outer loop
      vertex 37.7 14.2 108.6
      vertex 35.3 14.2 85.3
      vertex 37.7 14.2 85.3
    endloop
  endfacet
  facet normal 0 1 -0
    outer loop
      vertex 37.7 11 85.3
      vertex 35.3 11 108.6
      vertex 37.7 11 108.6
    endloop
  endfacet
  facet normal 0 1 0
    outer loop
      vertex 35.3 11 108.6
      vertex 37.7 11 85.3
      vertex 35.3 11 85.3
    endloop
  endfacet
  facet normal 0 0 -1
    outer loop
      vertex 35.3 11 108.6
      vertex 37.7 14.2 108.6
      vertex 37.7 11 108.6
    endloop
  endfacet
  facet normal -0 0 -1
    outer loop
      vertex 37.7 14.2 108.6
      vertex 35.3 11 108.6
      vertex 35.3 14.2 108.6
    endloop
  endfacet
  facet normal -0 0 1
    outer loop
      vertex 35.3 14.2 16
      vertex 37.7 11 16
      vertex 37.7 14.2 16
    endloop
  endfacet
  facet normal 0 0 1
    outer loop
      vertex 37.7 11 16
      vertex 35.3 14.2 16
      vertex 35.3 11 16
    endloop
  endfacet
  facet normal 0 -1 0
    outer loop
      vertex 35.3 14.2 16
      vertex 37.7 14.2 42.3
      vertex 35.3 14.2 42.3
    endloop
  endfacet
  facet normal 0 -1 -0
    outer loop
      vertex 37.7 14.2 42.3
      vertex 35.3 14.2 16
      vertex 37.7 14.2 16
    endloop
  endfacet
  facet normal 0 1 -0
    outer loop
      vertex 37.7 11 16
      vertex 35.3 11 42.3
      vertex 37.7 11 42.3
    endloop
  endfacet
  facet normal 0 1 0
    outer loop
      vertex 35.3 11 42.3
      vertex 37.7 11 16
      vertex 35.3 11 16
    endloop
  endfacet
  facet normal 0 0 -1
    outer loop
      vertex 35.3 11 42.3
      vertex 37.7 14.2 42.3
      vertex 37.7 11 42.3
    endloop
  endfacet
  facet normal -0 0 -1
    outer loop
      vertex 37.7 14.2 42.3
      vertex 35.3 11 42.3
      vertex 35.3 14.2 42.3
    endloop
  endfacet
  facet normal -0 0 1
    outer loop
      vertex 35.3 21.2 85.3
      vertex 37.7 18 85.3
      vertex 37.7 21.2 85.3
    endloop
  endfacet
  facet normal 0 0 1
    outer loop
      vertex 37.7 18 85.3
      vertex 35.3 21.2 85.3
      vertex 35.3 18 85.3
    endloop
  endfacet
  facet normal 0 -1 0
    outer loop
      vertex 35.3 21.2 85.3
      vertex 37.7 21.2 108.6
      vertex 35.3 21.2 108.6
    endloop
  endfacet
  facet normal 0 -1 -0
    outer loop
      vertex 37.7 21.2 108.6
      vertex 35.3 21.2 85.3
      vertex 37.7 21.2 85.3
    endloop
  endfacet
  facet normal 0 1 -0
    outer loop
      vertex 37.7 18 85.3
      vertex 35.3 18 108.6
      vertex 37.7 18 108.6
    endloop
  endfacet
  facet normal 0 1 0
    outer loop
      vertex 35.3 18 108.6
      vertex 37.7 18 85.3
      vertex 35.3 18 85.3
    endloop
  endfacet
  facet normal 0 0 -1
    outer loop
      vertex 35.3 18 108.6
      vertex 37.7 21.2 108.6
      vertex 37.7 18 108.6
    endloop
  endfacet
  facet normal -0 0 -1
    outer loop
      vertex 37.7 21.2 108.6
      vertex 35.3 18 108.6
      vertex 35.3 21.2 108.6
    endloop
  endfacet
  facet normal -0 0 1
    outer loop
      vertex 35.3 21.2 16
      vertex 37.7 18 16
      vertex 37.7 21.2 16
    endloop
  endfacet
  facet normal 0 0 1
    outer loop
      vertex 37.7 18 16
      vertex 35.3 21.2 16
      vertex 35.3 18 16
    endloop
  endfacet
  facet normal 0 -1 0
    outer loop
      vertex 35.3 21.2 16
      vertex 37.7 21.2 42.3
      vertex 35.3 21.2 42.3
    endloop
  endfacet
  facet normal 0 -1 -0
    outer loop
      vertex 37.7 21.2 42.3
      vertex 35.3 21.2 16
      vertex 37.7 21.2 16
    endloop
  endfacet
  facet normal 0 1 -0
    outer loop
      vertex 37.7 18 16
      vertex 35.3 18 42.3
      vertex 37.7 18 42.3
    endloop
  endfacet
  facet normal 0 1 0
    outer loop
      vertex 35.3 18 42.3
      vertex 37.7 18 16
      vertex 35.3 18 16
    endloop
  endfacet
  facet normal 0 0 -1
    outer loop
      vertex 35.3 18 42.3
      vertex 37.7 21.2 42.3
      vertex 37.7 18 42.3
    endloop
  endfacet
  facet normal -0 0 -1
    outer loop
      vertex 37.7 21.2 42.3
      vertex 35.3 18 42.3
      vertex 35.3 21.2 42.3
    endloop
  endfacet
  facet normal -0 0 1
    outer loop
      vertex 35.3 28.2 85.3
      vertex 37.7 25 85.3
      vertex 37.7 28.2 85.3
    endloop
  endfacet
  facet normal 0 0 1
    outer loop
      vertex 37.7 25 85.3
      vertex 35.3 28.2 85.3
      vertex 35.3 25 85.3
    endloop
  endfacet
  facet normal 0 -1 0
    outer loop
      vertex 35.3 28.2 85.3
      vertex 37.7 28.2 108.6
      vertex 35.3 28.2 108.6
    endloop
  endfacet
  facet normal 0 -1 -0
    outer loop
      vertex 37.7 28.2 108.6
      vertex 35.3 28.2 85.3
      vertex 37.7 28.2 85.3
    endloop
  endfacet
  facet normal 0 1 -0
    outer loop
      vertex 37.7 25 85.3
      vertex 35.3 25 108.6
      vertex 37.7 25 108.6
    endloop
  endfacet
  facet normal 0 1 0
    outer loop
      vertex 35.3 25 108.6
      vertex 37.7 25 85.3
      vertex 35.3 25 85.3
    endloop
  endfacet
  facet normal 0 0 -1
    outer loop
      vertex 35.3 25 108.6
      vertex 37.7 28.2 108.6
      vertex 37.7 25 108.6
    endloop
  endfacet
  facet normal -0 0 -1
    outer loop
      vertex 37.7 28.2 108.6
      vertex 35.3 25 108.6
      vertex 35.3 28.2 108.6
    endloop
  endfacet
  facet normal -0 0 1
    outer loop
      vertex 35.3 28.2 16
      vertex 37.7 25 16
      vertex 37.7 28.2 16
    endloop
  endfacet
  facet normal 0 0 1
    outer loop
      vertex 37.7 25 16
      vertex 35.3 28.2 16
      vertex 35.3 25 16
    endloop
  endfacet
  facet normal 0 -1 0
    outer loop
      vertex 35.3 28.2 16
      vertex 37.7 28.2 42.3
      vertex 35.3 28.2 42.3
    endloop
  endfacet
  facet normal 0 -1 -0
    outer loop
      vertex 37.7 28.2 42.3
      vertex 35.3 28.2 16
      vertex 37.7 28.2 16
    endloop
  endfacet
  facet normal 0 1 -0
    outer loop
      vertex 37.7 25 16
      vertex 35.3 25 42.3
      vertex 37.7 25 42.3
    endloop
  endfacet
  facet normal 0 1 0
    outer loop
      vertex 35.3 25 42.3
      vertex 37.7 25 16
      vertex 35.3 25 16
    endloop
  endfacet
  facet normal 0 0 -1
    outer loop
      vertex 35.3 25 42.3
      vertex 37.7 28.2 42.3
      vertex 37.7 25 42.3
    endloop
  endfacet
  facet normal -0 0 -1
    outer loop
      vertex 37.7 28.2 42.3
      vertex 35.3 25 42.3
      vertex 35.3 28.2 42.3
    endloop
  endfacet
  facet normal -0 0 1
    outer loop
      vertex 35.3 35.2 85.3
      vertex 37.7 32 85.3
      vertex 37.7 35.2 85.3
    endloop
  endfacet
  facet normal 0 0 1
    outer loop
      vertex 37.7 32 85.3
      vertex 35.3 35.2 85.3
      vertex 35.3 32 85.3
    endloop
  endfacet
  facet normal 0 -1 0
    outer loop
      vertex 35.3 35.2 85.3
      vertex 37.7 35.2 108.6
      vertex 35.3 35.2 108.6
    endloop
  endfacet
  facet normal 0 -1 -0
    outer loop
      vertex 37.7 35.2 108.6
      vertex 35.3 35.2 85.3
      vertex 37.7 35.2 85.3
    endloop
  endfacet
  facet normal 0 1 -0
    outer loop
      vertex 37.7 32 85.3
      vertex 35.3 32 108.6
      vertex 37.7 32 108.6
    endloop
  endfacet
  facet normal 0 1 0
    outer loop
      vertex 35.3 32 108.6
      vertex 37.7 32 85.3
      vertex 35.3 32 85.3
    endloop
  endfacet
  facet normal 0 0 -1
    outer loop
      vertex 35.3 32 108.6
      vertex 37.7 35.2 108.6
      vertex 37.7 32 108.6
    endloop
  endfacet
  facet normal -0 0 -1
    outer loop
      vertex 37.7 35.2 108.6
      vertex 35.3 32 108.6
      vertex 35.3 35.2 108.6
    endloop
  endfacet
  facet normal -0 0 1
    outer loop
      vertex 35.3 35.2 16
      vertex 37.7 32 16
      vertex 37.7 35.2 16
    endloop
  endfacet
  facet normal 0 0 1
    outer loop
      vertex 37.7 32 16
      vertex 35.3 35.2 16
      vertex 35.3 32 16
    endloop
  endfacet
  facet normal 0 -1 0
    outer loop
      vertex 35.3 35.2 16
      vertex 37.7 35.2 42.3
      vertex 35.3 35.2 42.3
    endloop
  endfacet
  facet normal 0 -1 -0
    outer loop
      vertex 37.7 35.2 42.3
      vertex 35.3 35.2 16
      vertex 37.7 35.2 16
    endloop
  endfacet
  facet normal 0 1 -0
    outer loop
      vertex 37.7 32 16
      vertex 35.3 32 42.3
      vertex 37.7 32 42.3
    endloop
  endfacet
  facet normal 0 1 0
    outer loop
      vertex 35.3 32 42.3
      vertex 37.7 32 16
      vertex 35.3 32 16
    endloop
  endfacet
  facet normal 0 0 -1
    outer loop
      vertex 35.3 32 42.3
      vertex 37.7 35.2 42.3
      vertex 37.7 32 42.3
    endloop
  endfacet
  facet normal -0 0 -1
    outer loop
      vertex 37.7 35.2 42.3
      vertex 35.3 32 42.3
      vertex 35.3 35.2 42.3
    endloop
  endfacet
  facet normal -0 0 1
    outer loop
      vertex 35.3 42.2 85.3
      vertex 37.7 39 85.3
      vertex 37.7 42.2 85.3
    endloop
  endfacet
  facet normal 0 0 1
    outer loop
      vertex 37.7 39 85.3
      vertex 35.3 42.2 85.3
      vertex 35.3 39 85.3
    endloop
  endfacet
  facet normal 0 -1 0
    outer loop
      vertex 35.3 42.2 85.3
      vertex 37.7 42.2 108.6
      vertex 35.3 42.2 108.6
    endloop
  endfacet
  facet normal 0 -1 -0
    outer loop
      vertex 37.7 42.2 108.6
      vertex 35.3 42.2 85.3
      vertex 37.7 42.2 85.3
    endloop
  endfacet
  facet normal 0 1 -0
    outer loop
      vertex 37.7 39 85.3
      vertex 35.3 39 108.6
      vertex 37.7 39 108.6
    endloop
  endfacet
  facet normal 0 1 0
    outer loop
      vertex 35.3 39 108.6
      vertex 37.7 39 85.3
      vertex 35.3 39 85.3
    endloop
  endfacet
  facet normal 0 0 -1
    outer loop
      vertex 35.3 39 108.6
      vertex 37.7 42.2 108.6
      vertex 37.7 39 108.6
    endloop
  endfacet
  facet normal -0 0 -1
    outer loop
      vertex 37.7 42.2 108.6
      vertex 35.3 39 108.6
      vertex 35.3 42.2 108.6
    endloop
  endfacet
  facet normal -0 0 1
    outer loop
      vertex 35.3 42.2 16
      vertex 37.7 39 16
      vertex 37.7 42.2 16
    endloop
  endfacet
  facet normal 0 0 1
    outer loop
      vertex 37.7 39 16
      vertex 35.3 42.2 16
      vertex 35.3 39 16
    endloop
  endfacet
  facet normal 0 -1 0
    outer loop
      vertex 35.3 42.2 16
      vertex 37.7 42.2 42.3
      vertex 35.3 42.2 42.3
    endloop
  endfacet
  facet normal 0 -1 -0
    outer loop
      vertex 37.7 42.2 42.3
      vertex 35.3 42.2 16
      vertex 37.7 42.2 16
    endloop
  endfacet
  facet normal 0 1 -0
    outer loop
      vertex 37.7 39 16
      vertex 35.3 39 42.3
      vertex 37.7 39 42.3
    endloop
  endfacet
  facet normal 0 1 0
    outer loop
      vertex 35.3 39 42.3
      vertex 37.7 39 16
      vertex 35.3 39 16
    endloop
  endfacet
  facet normal 0 0 -1
    outer loop
      vertex 35.3 39 42.3
      vertex 37.7 42.2 42.3
      vertex 37.7 39 42.3
    endloop
  endfacet
  facet normal -0 0 -1
    outer loop
      vertex 37.7 42.2 42.3
      vertex 35.3 39 42.3
      vertex 35.3 42.2 42.3
    endloop
  endfacet
  facet normal -0 0 1
    outer loop
      vertex -37.7 14.2 16
      vertex -35.3 11 16
      vertex -35.3 14.2 16
    endloop
  endfacet
  facet normal 0 0 1
    outer loop
      vertex -35.3 11 16
      vertex -37.7 14.2 16
      vertex -37.7 11 16
    endloop
  endfacet
  facet normal 0 -1 0
    outer loop
      vertex -37.7 14.2 16
      vertex -35.3 14.2 108.6
      vertex -37.7 14.2 108.6
    endloop
  endfacet
  facet normal 0 -1 -0
    outer loop
      vertex -35.3 14.2 108.6
      vertex -37.7 14.2 16
      vertex -35.3 14.2 16
    endloop
  endfacet
  facet normal 0 1 -0
    outer loop
      vertex -35.3 11 16
      vertex -37.7 11 108.6
      vertex -35.3 11 108.6
    endloop
  endfacet
  facet normal 0 1 0
    outer loop
      vertex -37.7 11 108.6
      vertex -35.3 11 16
      vertex -37.7 11 16
    endloop
  endfacet
  facet normal 0 0 -1
    outer loop
      vertex -37.7 11 108.6
      vertex -35.3 14.2 108.6
      vertex -35.3 11 108.6
    endloop
  endfacet
  facet normal -0 0 -1
    outer loop
      vertex -35.3 14.2 108.6
      vertex -37.7 11 108.6
      vertex -37.7 14.2 108.6
    endloop
  endfacet
  facet normal -0 0 1
    outer loop
      vertex -37.7 21.2 16
      vertex -35.3 18 16
      vertex -35.3 21.2 16
    endloop
  endfacet
  facet normal 0 0 1
    outer loop
      vertex -35.3 18 16
      vertex -37.7 21.2 16
      vertex -37.7 18 16
    endloop
  endfacet
  facet normal 0 -1 0
    outer loop
      vertex -37.7 21.2 16
      vertex -35.3 21.2 108.6
      vertex -37.7 21.2 108.6
    endloop
  endfacet
  facet normal 0 -1 -0
    outer loop
      vertex -35.3 21.2 108.6
      vertex -37.7 21.2 16
      vertex -35.3 21.2 16
    endloop
  endfacet
  facet normal 0 1 -0
    outer loop
      vertex -35.3 18 16
      vertex -37.7 18 108.6
      vertex -35.3 18 108.6
    endloop
  endfacet
  facet normal 0 1 0
    outer loop
      vertex -37.7 18 108.6
      vertex -35.3 18 16
      vertex -37.7 18 16
    endloop
  endfacet
  facet normal 0 0 -1
    outer loop
      vertex -37.7 18 108.6
      vertex -35.3 21.2 108.6
      vertex -35.3 18 108.6
    endloop
  endfacet
  facet normal -0 0 -1
    outer loop
      vertex -35.3 21.2 108.6
      vertex -37.7 18 108.6
      vertex -37.7 21.2 108.6
    endloop
  endfacet
  facet normal -0 0 1
    outer loop
      vertex -37.7 28.2 16
      vertex -35.3 25 16
      vertex -35.3 28.2 16
    endloop
  endfacet
  facet normal 0 0 1
    outer loop
      vertex -35.3 25 16
      vertex -37.7 28.2 16
      vertex -37.7 25 16
    endloop
  endfacet
  facet normal 0 -1 0
    outer loop
      vertex -37.7 28.2 16
      vertex -35.3 28.2 108.6
      vertex -37.7 28.2 108.6
    endloop
  endfacet
  facet normal 0 -1 -0
    outer loop
      vertex -35.3 28.2 108.6
      vertex -37.7 28.2 16
      vertex -35.3 28.2 16
    endloop
  endfacet
  facet normal 0 1 -0
    outer loop
      vertex -35.3 25 16
      vertex -37.7 25 108.6
      vertex -35.3 25 108.6
    endloop
  endfacet
  facet normal 0 1 0
    outer loop
      vertex -37.7 25 108.6
      vertex -35.3 25 16
      vertex -37.7 25 16
    endloop
  endfacet
  facet normal 0 0 -1
    outer loop
      vertex -37.7 25 108.6
      vertex -35.3 28.2 108.6
      vertex -35.3 25 108.6
    endloop
  endfacet
  facet normal -0 0 -1
    outer loop
      vertex -35.3 28.2 108.6
      vertex -37.7 25 108.6
      vertex -37.7 28.2 108.6
    endloop
  endfacet
  facet normal -0 0 1
    outer loop
      vertex -37.7 35.2 16
      vertex -35.3 32 16
      vertex -35.3 35.2 16
    endloop
  endfacet
  facet normal 0 0 1
    outer loop
      vertex -35.3 32 16
      vertex -37.7 35.2 16
      vertex -37.7 32 16
    endloop
  endfacet
  facet normal 0 -1 0
    outer loop
      vertex -37.7 35.2 16
      vertex -35.3 35.2 108.6
      vertex -37.7 35.2 108.6
    endloop
  endfacet
  facet normal 0 -1 -0
    outer loop
      vertex -35.3 35.2 108.6
      vertex -37.7 35.2 16
      vertex -35.3 35.2 16
    endloop
  endfacet
  facet normal 0 1 -0
    outer loop
      vertex -35.3 32 16
      vertex -37.7 32 108.6
      vertex -35.3 32 108.6
    endloop
  endfacet
  facet normal 0 1 0
    outer loop
      vertex -37.7 32 108.6
      vertex -35.3 32 16
      vertex -37.7 32 16
    endloop
  endfacet
  facet normal 0 0 -1
    outer loop
      vertex -37.7 32 108.6
      vertex -35.3 35.2 108.6
      vertex -35.3 32 108.6
    endloop
  endfacet
  facet normal -0 0 -1
    outer loop
      vertex -35.3 35.2 108.6
      vertex -37.7 32 108.6
      vertex -37.7 35.2 108.6
    endloop
  endfacet
  facet normal -0 0 1
    outer loop
      vertex -37.7 42.2 16
      vertex -35.3 39 16
      vertex -35.3 42.2 16
    endloop
  endfacet
  facet normal 0 0 1
    outer loop
      vertex -35.3 39 16
      vertex -37.7 42.2 16
      vertex -37.7 39 16
    endloop
  endfacet
  facet normal 0 -1 0
    outer loop
      vertex -37.7 42.2 16
      vertex -35.3 42.2 108.6
      vertex -37.7 42.2 108.6
    endloop
  endfacet
  facet normal 0 -1 -0
    outer loop
      vertex -35.3 42.2 108.6
      vertex -37.7 42.2 16
      vertex -35.3 42.2 16
    endloop
  endfacet
  facet normal 0 1 -0
    outer loop
      vertex -35.3 39 16
      vertex -37.7 39 108.6
      vertex -35.3 39 108.6
    endloop
  endfacet
  facet normal 0 1 0
    outer loop
      vertex -37.7 39 108.6
      vertex -35.3 39 16
      vertex -37.7 39 16
    endloop
  endfacet
  facet normal 0 0 -1
    outer loop
      vertex -37.7 39 108.6
      vertex -35.3 42.2 108.6
      vertex -35.3 39 108.6
    endloop
  endfacet
  facet normal -0 0 -1
    outer loop
      vertex -35.3 42.2 108.6
      vertex -37.7 39 108.6
      vertex -37.7 42.2 108.6
    endloop
  endfacet
  facet normal -0 0 1
    outer loop
      vertex 35.3 35.2 47.1
      vertex 37.7 14.8 47.1
      vertex 37.7 35.2 47.1
    endloop
  endfacet
  facet normal 0 0 1
    outer loop
      vertex 37.7 14.8 47.1
      vertex 35.3 35.2 47.1
      vertex 35.3 14.8 47.1
    endloop
  endfacet
  facet normal 0 -1 0
    outer loop
      vertex 35.3 16 48.3
      vertex 37.7 16 80.3
      vertex 35.3 16 80.3
    endloop
  endfacet
  facet normal 0 -1 -0
    outer loop
      vertex 37.7 16 80.3
      vertex 35.3 16 48.3
      vertex 37.7 16 48.3
    endloop
  endfacet
  facet normal 0 1 -0
    outer loop
      vertex 37.7 14.8 47.1
      vertex 35.3 14.8 80.3
      vertex 37.7 14.8 80.3
    endloop
  endfacet
  facet normal 0 1 0
    outer loop
      vertex 35.3 14.8 80.3
      vertex 37.7 14.8 47.1
      vertex 35.3 14.8 47.1
    endloop
  endfacet
  facet normal 0 0 -1
    outer loop
      vertex 35.3 14.8 80.3
      vertex 37.7 16 80.3
      vertex 37.7 14.8 80.3
    endloop
  endfacet
  facet normal -0 0 -1
    outer loop
      vertex 37.7 16 80.3
      vertex 35.3 14.8 80.3
      vertex 35.3 16 80.3
    endloop
  endfacet
  facet normal 0 -1 0
    outer loop
      vertex 35.3 35.2 47.1
      vertex 37.7 35.2 80.3
      vertex 35.3 35.2 80.3
    endloop
  endfacet
  facet normal 0 -1 -0
    outer loop
      vertex 37.7 35.2 80.3
      vertex 35.3 35.2 47.1
      vertex 37.7 35.2 47.1
    endloop
  endfacet
  facet normal 0 1 -0
    outer loop
      vertex 37.7 34 48.3
      vertex 35.3 34 80.3
      vertex 37.7 34 80.3
    endloop
  endfacet
  facet normal 0 1 0
    outer loop
      vertex 35.3 34 80.3
      vertex 37.7 34 48.3
      vertex 35.3 34 48.3
    endloop
  endfacet
  facet normal 0 0 -1
    outer loop
      vertex 35.3 34 80.3
      vertex 37.7 35.2 80.3
      vertex 37.7 34 80.3
    endloop
  endfacet
  facet normal -0 0 -1
    outer loop
      vertex 37.7 35.2 80.3
      vertex 35.3 34 80.3
      vertex 35.3 35.2 80.3
    endloop
  endfacet
  facet normal 0 0 -1
    outer loop
      vertex 35.3 16 48.3
      vertex 37.7 34 48.3
      vertex 37.7 16 48.3
    endloop
  endfacet
  facet normal -0 0 -1
    outer loop
      vertex 37.7 34 48.3
      vertex 35.3 16 48.3
      vertex 35.3 34 48.3
    endloop
  endfacet
  facet normal 0 0 -1
    outer loop
      vertex 37.7 0 5.72205e-07
      vertex 35.3 5 5.72205e-07
      vertex 37.7 50 5.72205e-07
    endloop
  endfacet
  facet normal 0 0 -1
    outer loop
      vertex 37.7 0 5.72205e-07
      vertex -35.3 5 5.72205e-07
      vertex 35.3 5 5.72205e-07
    endloop
  endfacet
  facet normal 0 0 -1
    outer loop
      vertex -37.7 50 5.72205e-07
      vertex -35.3 5 5.72205e-07
      vertex -37.7 0 5.72205e-07
    endloop
  endfacet
  facet normal 0 0 -1
    outer loop
      vertex -37.7 0 5.72205e-07
      vertex -35.3 5 5.72205e-07
      vertex 37.7 0 5.72205e-07
    endloop
  endfacet
  facet normal 0 0 -1
    outer loop
      vertex 35.3 47.6 5.72205e-07
      vertex 37.7 50 5.72205e-07
      vertex 35.3 5 5.72205e-07
    endloop
  endfacet
  facet normal 0 0 -1
    outer loop
      vertex 29.3 50 5.72205e-07
      vertex 35.3 47.6 5.72205e-07
      vertex 29.3 47.6 5.72205e-07
    endloop
  endfacet
  facet normal 0 0 -1
    outer loop
      vertex 35.3 47.6 5.72205e-07
      vertex 29.3 50 5.72205e-07
      vertex 37.7 50 5.72205e-07
    endloop
  endfacet
  facet normal 0 0 -1
    outer loop
      vertex -35.3 47.6 5.72205e-07
      vertex -29.3 50 5.72205e-07
      vertex -29.3 47.6 5.72205e-07
    endloop
  endfacet
  facet normal 0 0 -1
    outer loop
      vertex -35.3 47.6 5.72205e-07
      vertex -37.7 50 5.72205e-07
      vertex -29.3 50 5.72205e-07
    endloop
  endfacet
  facet normal 0 0 -1
    outer loop
      vertex -35.3 5 5.72205e-07
      vertex -37.7 50 5.72205e-07
      vertex -35.3 47.6 5.72205e-07
    endloop
  endfacet
  facet normal 0 1 0
    outer loop
      vertex 29.3 50 122.2
      vertex 29.3 50 124.6
      vertex 37.7 50 124.6
    endloop
  endfacet
  facet normal 0 1 0
    outer loop
      vertex 29.3 50 124.6
      vertex 29.3 50 122.2
      vertex -29.3 50 124.6
    endloop
  endfacet
  facet normal 0 1 0
    outer loop
      vertex -29.3 50 122.2
      vertex -29.3 50 124.6
      vertex 29.3 50 122.2
    endloop
  endfacet
  facet normal 0 1 -0
    outer loop
      vertex 37.7 50 5.72205e-07
      vertex 29.3 50 122.2
      vertex 37.7 50 124.6
    endloop
  endfacet
  facet normal 0 1 0
    outer loop
      vertex 29.3 50 122.2
      vertex 37.7 50 5.72205e-07
      vertex 29.3 50 5.72205e-07
    endloop
  endfacet
  facet normal 0 1 0
    outer loop
      vertex -29.3 50 124.6
      vertex -29.3 50 122.2
      vertex -37.7 50 124.6
    endloop
  endfacet
  facet normal 0 1 0
    outer loop
      vertex -37.7 50 5.72205e-07
      vertex -29.3 50 122.2
      vertex -29.3 50 5.72205e-07
    endloop
  endfacet
  facet normal 0 1 0
    outer loop
      vertex -29.3 50 122.2
      vertex -37.7 50 5.72205e-07
      vertex -37.7 50 124.6
    endloop
  endfacet
  facet normal 0 -1 0
    outer loop
      vertex -37.7 0 124.6
      vertex -22.45 0 16.15
      vertex -22.45 0 124.6
    endloop
  endfacet
  facet normal 0 -1 0
    outer loop
      vertex -37.7 0 5.72205e-07
      vertex -17.55 0 16.15
      vertex -22.45 0 16.15
    endloop
  endfacet
  facet normal 0 -1 -0
    outer loop
      vertex -17.55 0 16.15
      vertex -37.7 0 5.72205e-07
      vertex 17.55 0 16.15
    endloop
  endfacet
  facet normal 0 -1 0
    outer loop
      vertex 37.7 0 5.72205e-07
      vertex 17.55 0 16.15
      vertex -37.7 0 5.72205e-07
    endloop
  endfacet
  facet normal 0 -1 0
    outer loop
      vertex -37.7 0 5.72205e-07
      vertex -22.45 0 16.15
      vertex -37.7 0 124.6
    endloop
  endfacet
  facet normal 0 -1 0
    outer loop
      vertex -17.55 0 16.15
      vertex 17.55 0 124.6
      vertex -17.55 0 124.6
    endloop
  endfacet
  facet normal 0 -1 -0
    outer loop
      vertex 17.55 0 124.6
      vertex -17.55 0 16.15
      vertex 17.55 0 16.15
    endloop
  endfacet
  facet normal 0 -1 0
    outer loop
      vertex 22.45 0 16.15
      vertex 37.7 0 124.6
      vertex 22.45 0 124.6
    endloop
  endfacet
  facet normal 0 -1 0
    outer loop
      vertex 22.45 0 16.15
      vertex 37.7 0 5.72205e-07
      vertex 37.7 0 124.6
    endloop
  endfacet
  facet normal 0 -1 0
    outer loop
      vertex 17.55 0 16.15
      vertex 37.7 0 5.72205e-07
      vertex 22.45 0 16.15
    endloop
  endfacet
  facet normal 0 0 1
    outer loop
      vertex -29.3 50 124.6
      vertex -35.3 47.6 124.6
      vertex -29.3 47.6 124.6
    endloop
  endfacet
  facet normal 0 0 1
    outer loop
      vertex -35.3 47.6 124.6
      vertex -37.7 50 124.6
      vertex -35.3 5 124.6
    endloop
  endfacet
  facet normal -0 0 1
    outer loop
      vertex -37.7 50 124.6
      vertex -35.3 47.6 124.6
      vertex -29.3 50 124.6
    endloop
  endfacet
  facet normal 0 0 1
    outer loop
      vertex 35.3 5 124.6
      vertex 37.7 50 124.6
      vertex 35.3 47.6 124.6
    endloop
  endfacet
  facet normal -0 0 1
    outer loop
      vertex 29.3 50 124.6
      vertex 35.3 47.6 124.6
      vertex 37.7 50 124.6
    endloop
  endfacet
  facet normal 0 0 1
    outer loop
      vertex 35.3 47.6 124.6
      vertex 29.3 50 124.6
      vertex 29.3 47.6 124.6
    endloop
  endfacet
  facet normal 0 0 1
    outer loop
      vertex 37.7 50 124.6
      vertex 35.3 5 124.6
      vertex 37.7 0 124.6
    endloop
  endfacet
  facet normal -0 0 1
    outer loop
      vertex 24.05 3.14999 124.6
      vertex 37.7 0 124.6
      vertex 35.3 5 124.6
    endloop
  endfacet
  facet normal 0 0 1
    outer loop
      vertex 37.7 0 124.6
      vertex 24.05 3.14999 124.6
      vertex 22.45 0 124.6
    endloop
  endfacet
  facet normal 0 0 1
    outer loop
      vertex 35.3 5 124.6
      vertex 17.55 3.14999 124.6
      vertex 24.05 3.14999 124.6
    endloop
  endfacet
  facet normal 0 0 1
    outer loop
      vertex 17.55 3.14999 124.6
      vertex -15.95 3.14999 124.6
      vertex 17.55 0 124.6
    endloop
  endfacet
  facet normal 0 0 1
    outer loop
      vertex 35.3 5 124.6
      vertex -15.95 3.14999 124.6
      vertex 17.55 3.14999 124.6
    endloop
  endfacet
  facet normal -0 0 1
    outer loop
      vertex -35.3 5 124.6
      vertex -15.95 3.14999 124.6
      vertex 35.3 5 124.6
    endloop
  endfacet
  facet normal 0 0 1
    outer loop
      vertex -15.95 3.14999 124.6
      vertex -35.3 5 124.6
      vertex -22.45 3.14999 124.6
    endloop
  endfacet
  facet normal 0 0 1
    outer loop
      vertex -35.3 5 124.6
      vertex -22.45 0 124.6
      vertex -22.45 3.14999 124.6
    endloop
  endfacet
  facet normal 0 0 1
    outer loop
      vertex -35.3 5 124.6
      vertex -37.7 0 124.6
      vertex -22.45 0 124.6
    endloop
  endfacet
  facet normal 0 0 1
    outer loop
      vertex -37.7 0 124.6
      vertex -35.3 5 124.6
      vertex -37.7 50 124.6
    endloop
  endfacet
  facet normal 0 0 1
    outer loop
      vertex 17.55 0 124.6
      vertex -15.95 3.14999 124.6
      vertex -17.55 0 124.6
    endloop
  endfacet
  facet normal -1 0 0
    outer loop
      vertex -37.7 50 5.72205e-07
      vertex -37.7 42.2 16
      vertex -37.7 50 124.6
    endloop
  endfacet
  facet normal -1 0 0
    outer loop
      vertex -37.7 50 5.72205e-07
      vertex -37.7 39 16
      vertex -37.7 42.2 16
    endloop
  endfacet
  facet normal -1 0 0
    outer loop
      vertex -37.7 39 16
      vertex -37.7 35.2 16
      vertex -37.7 39 108.6
    endloop
  endfacet
  facet normal -1 0 0
    outer loop
      vertex -37.7 50 5.72205e-07
      vertex -37.7 35.2 16
      vertex -37.7 39 16
    endloop
  endfacet
  facet normal -1 0 0
    outer loop
      vertex -37.7 50 5.72205e-07
      vertex -37.7 32 16
      vertex -37.7 35.2 16
    endloop
  endfacet
  facet normal -1 0 0
    outer loop
      vertex -37.7 32 16
      vertex -37.7 28.2 16
      vertex -37.7 32 108.6
    endloop
  endfacet
  facet normal -1 0 0
    outer loop
      vertex -37.7 50 5.72205e-07
      vertex -37.7 28.2 16
      vertex -37.7 32 16
    endloop
  endfacet
  facet normal -1 0 0
    outer loop
      vertex -37.7 50 5.72205e-07
      vertex -37.7 25 16
      vertex -37.7 28.2 16
    endloop
  endfacet
  facet normal -1 0 0
    outer loop
      vertex -37.7 25 16
      vertex -37.7 21.2 16
      vertex -37.7 25 108.6
    endloop
  endfacet
  facet normal -1 0 0
    outer loop
      vertex -37.7 0 5.72205e-07
      vertex -37.7 25 16
      vertex -37.7 50 5.72205e-07
    endloop
  endfacet
  facet normal -1 -0 0
    outer loop
      vertex -37.7 25 16
      vertex -37.7 0 5.72205e-07
      vertex -37.7 21.2 16
    endloop
  endfacet
  facet normal -1 0 0
    outer loop
      vertex -37.7 18 16
      vertex -37.7 14.2 16
      vertex -37.7 18 108.6
    endloop
  endfacet
  facet normal -1 -0 0
    outer loop
      vertex -37.7 21.2 16
      vertex -37.7 0 5.72205e-07
      vertex -37.7 18 16
    endloop
  endfacet
  facet normal -1 -0 0
    outer loop
      vertex -37.7 18 16
      vertex -37.7 0 5.72205e-07
      vertex -37.7 14.2 16
    endloop
  endfacet
  facet normal -1 -0 0
    outer loop
      vertex -37.7 11 16
      vertex -37.7 0 5.72205e-07
      vertex -37.7 11 108.6
    endloop
  endfacet
  facet normal -1 -0 0
    outer loop
      vertex -37.7 14.2 16
      vertex -37.7 0 5.72205e-07
      vertex -37.7 11 16
    endloop
  endfacet
  facet normal -1 0 0
    outer loop
      vertex -37.7 42.2 108.6
      vertex -37.7 50 124.6
      vertex -37.7 42.2 16
    endloop
  endfacet
  facet normal -1 0 0
    outer loop
      vertex -37.7 39 108.6
      vertex -37.7 50 124.6
      vertex -37.7 42.2 108.6
    endloop
  endfacet
  facet normal -1 0 0
    outer loop
      vertex -37.7 35.2 108.6
      vertex -37.7 39 108.6
      vertex -37.7 35.2 16
    endloop
  endfacet
  facet normal -1 0 0
    outer loop
      vertex -37.7 35.2 108.6
      vertex -37.7 50 124.6
      vertex -37.7 39 108.6
    endloop
  endfacet
  facet normal -1 0 0
    outer loop
      vertex -37.7 32 108.6
      vertex -37.7 50 124.6
      vertex -37.7 35.2 108.6
    endloop
  endfacet
  facet normal -1 0 0
    outer loop
      vertex -37.7 28.2 108.6
      vertex -37.7 32 108.6
      vertex -37.7 28.2 16
    endloop
  endfacet
  facet normal -1 0 0
    outer loop
      vertex -37.7 28.2 108.6
      vertex -37.7 50 124.6
      vertex -37.7 32 108.6
    endloop
  endfacet
  facet normal -1 0 0
    outer loop
      vertex -37.7 25 108.6
      vertex -37.7 50 124.6
      vertex -37.7 28.2 108.6
    endloop
  endfacet
  facet normal -1 0 0
    outer loop
      vertex -37.7 21.2 108.6
      vertex -37.7 25 108.6
      vertex -37.7 21.2 16
    endloop
  endfacet
  facet normal -1 0 0
    outer loop
      vertex -37.7 0 124.6
      vertex -37.7 25 108.6
      vertex -37.7 21.2 108.6
    endloop
  endfacet
  facet normal -1 0 0
    outer loop
      vertex -37.7 0 124.6
      vertex -37.7 21.2 108.6
      vertex -37.7 18 108.6
    endloop
  endfacet
  facet normal -1 0 0
    outer loop
      vertex -37.7 14.2 108.6
      vertex -37.7 18 108.6
      vertex -37.7 14.2 16
    endloop
  endfacet
  facet normal -1 0 0
    outer loop
      vertex -37.7 0 124.6
      vertex -37.7 18 108.6
      vertex -37.7 14.2 108.6
    endloop
  endfacet
  facet normal -1 0 0
    outer loop
      vertex -37.7 0 124.6
      vertex -37.7 14.2 108.6
      vertex -37.7 11 108.6
    endloop
  endfacet
  facet normal -1 0 0
    outer loop
      vertex -37.7 25 108.6
      vertex -37.7 0 124.6
      vertex -37.7 50 124.6
    endloop
  endfacet
  facet normal -1 0 0
    outer loop
      vertex -37.7 0 124.6
      vertex -37.7 11 108.6
      vertex -37.7 0 5.72205e-07
    endloop
  endfacet
  facet normal 1 0 0
    outer loop
      vertex 37.7 14.8 80.3
      vertex 37.7 11 42.3
      vertex 37.7 14.8 47.1
    endloop
  endfacet
  facet normal 1 0 0
    outer loop
      vertex 37.7 14.8 47.1
      vertex 37.7 11 42.3
      vertex 37.7 14.2 42.3
    endloop
  endfacet
  facet normal 1 0 0
    outer loop
      vertex 37.7 35.2 47.1
      vertex 37.7 32 42.3
      vertex 37.7 35.2 42.3
    endloop
  endfacet
  facet normal 1 0 0
    outer loop
      vertex 37.7 32 42.3
      vertex 37.7 28.2 42.3
      vertex 37.7 32 16
    endloop
  endfacet
  facet normal 1 0 0
    outer loop
      vertex 37.7 35.2 47.1
      vertex 37.7 28.2 42.3
      vertex 37.7 32 42.3
    endloop
  endfacet
  facet normal 1 0 0
    outer loop
      vertex 37.7 35.2 47.1
      vertex 37.7 25 42.3
      vertex 37.7 28.2 42.3
    endloop
  endfacet
  facet normal 1 0 0
    outer loop
      vertex 37.7 25 42.3
      vertex 37.7 21.2 42.3
      vertex 37.7 25 16
    endloop
  endfacet
  facet normal 1 -0 0
    outer loop
      vertex 37.7 14.8 47.1
      vertex 37.7 25 42.3
      vertex 37.7 35.2 47.1
    endloop
  endfacet
  facet normal 1 0 0
    outer loop
      vertex 37.7 25 42.3
      vertex 37.7 14.8 47.1
      vertex 37.7 21.2 42.3
    endloop
  endfacet
  facet normal 1 0 0
    outer loop
      vertex 37.7 14.2 42.3
      vertex 37.7 18 42.3
      vertex 37.7 14.8 47.1
    endloop
  endfacet
  facet normal 1 0 0
    outer loop
      vertex 37.7 21.2 42.3
      vertex 37.7 14.8 47.1
      vertex 37.7 18 42.3
    endloop
  endfacet
  facet normal 1 0 0
    outer loop
      vertex 37.7 35.2 85.3
      vertex 37.7 34 80.3
      vertex 37.7 35.2 80.3
    endloop
  endfacet
  facet normal 1 -0 0
    outer loop
      vertex 37.7 32 85.3
      vertex 37.7 34 80.3
      vertex 37.7 35.2 85.3
    endloop
  endfacet
  facet normal 1 -0 0
    outer loop
      vertex 37.7 28.2 85.3
      vertex 37.7 34 80.3
      vertex 37.7 32 85.3
    endloop
  endfacet
  facet normal 1 0 0
    outer loop
      vertex 37.7 28.2 85.3
      vertex 37.7 32 85.3
      vertex 37.7 28.2 108.6
    endloop
  endfacet
  facet normal 1 -0 0
    outer loop
      vertex 37.7 25 85.3
      vertex 37.7 34 80.3
      vertex 37.7 28.2 85.3
    endloop
  endfacet
  facet normal 1 0 0
    outer loop
      vertex 37.7 34 80.3
      vertex 37.7 25 85.3
      vertex 37.7 16 80.3
    endloop
  endfacet
  facet normal 1 0 0
    outer loop
      vertex 37.7 21.2 85.3
      vertex 37.7 25 85.3
      vertex 37.7 21.2 108.6
    endloop
  endfacet
  facet normal 1 0 0
    outer loop
      vertex 37.7 16 80.3
      vertex 37.7 25 85.3
      vertex 37.7 21.2 85.3
    endloop
  endfacet
  facet normal 1 0 0
    outer loop
      vertex 37.7 16 80.3
      vertex 37.7 21.2 85.3
      vertex 37.7 18 85.3
    endloop
  endfacet
  facet normal 1 0 0
    outer loop
      vertex 37.7 34 80.3
      vertex 37.7 16 80.3
      vertex 37.7 34 48.3
    endloop
  endfacet
  facet normal 1 0 0
    outer loop
      vertex 37.7 34 48.3
      vertex 37.7 16 80.3
      vertex 37.7 16 48.3
    endloop
  endfacet
  facet normal 1 0 0
    outer loop
      vertex 37.7 35.2 80.3
      vertex 37.7 42.2 85.3
      vertex 37.7 39 85.3
    endloop
  endfacet
  facet normal 1 0 0
    outer loop
      vertex 37.7 42.2 85.3
      vertex 37.7 35.2 80.3
      vertex 37.7 42.2 42.3
    endloop
  endfacet
  facet normal 1 0 0
    outer loop
      vertex 37.7 42.2 85.3
      vertex 37.7 50 124.6
      vertex 37.7 42.2 108.6
    endloop
  endfacet
  facet normal 1 0 0
    outer loop
      vertex 37.7 50 124.6
      vertex 37.7 39 108.6
      vertex 37.7 42.2 108.6
    endloop
  endfacet
  facet normal 1 0 0
    outer loop
      vertex 37.7 35.2 85.3
      vertex 37.7 39 85.3
      vertex 37.7 39 108.6
    endloop
  endfacet
  facet normal 1 -0 0
    outer loop
      vertex 37.7 35.2 47.1
      vertex 37.7 42.2 42.3
      vertex 37.7 35.2 80.3
    endloop
  endfacet
  facet normal 1 0 0
    outer loop
      vertex 37.7 35.2 85.3
      vertex 37.7 39 108.6
      vertex 37.7 35.2 108.6
    endloop
  endfacet
  facet normal 1 0 0
    outer loop
      vertex 37.7 50 124.6
      vertex 37.7 35.2 108.6
      vertex 37.7 39 108.6
    endloop
  endfacet
  facet normal 1 0 0
    outer loop
      vertex 37.7 50 124.6
      vertex 37.7 32 108.6
      vertex 37.7 35.2 108.6
    endloop
  endfacet
  facet normal 1 0 0
    outer loop
      vertex 37.7 32 108.6
      vertex 37.7 28.2 108.6
      vertex 37.7 32 85.3
    endloop
  endfacet
  facet normal 1 0 0
    outer loop
      vertex 37.7 50 124.6
      vertex 37.7 28.2 108.6
      vertex 37.7 32 108.6
    endloop
  endfacet
  facet normal 1 0 0
    outer loop
      vertex 37.7 50 124.6
      vertex 37.7 25 108.6
      vertex 37.7 28.2 108.6
    endloop
  endfacet
  facet normal 1 0 0
    outer loop
      vertex 37.7 25 108.6
      vertex 37.7 21.2 108.6
      vertex 37.7 25 85.3
    endloop
  endfacet
  facet normal 1 -0 0
    outer loop
      vertex 37.7 0 124.6
      vertex 37.7 25 108.6
      vertex 37.7 50 124.6
    endloop
  endfacet
  facet normal 1 0 0
    outer loop
      vertex 37.7 25 108.6
      vertex 37.7 0 124.6
      vertex 37.7 21.2 108.6
    endloop
  endfacet
  facet normal 1 0 0
    outer loop
      vertex 37.7 14.2 85.3
      vertex 37.7 18 85.3
      vertex 37.7 18 108.6
    endloop
  endfacet
  facet normal 1 0 0
    outer loop
      vertex 37.7 18 85.3
      vertex 37.7 14.2 85.3
      vertex 37.7 16 80.3
    endloop
  endfacet
  facet normal 1 0 0
    outer loop
      vertex 37.7 16 80.3
      vertex 37.7 14.2 85.3
      vertex 37.7 14.8 80.3
    endloop
  endfacet
  facet normal 1 0 0
    outer loop
      vertex 37.7 14.2 85.3
      vertex 37.7 18 108.6
      vertex 37.7 14.2 108.6
    endloop
  endfacet
  facet normal 1 0 0
    outer loop
      vertex 37.7 21.2 108.6
      vertex 37.7 0 124.6
      vertex 37.7 18 108.6
    endloop
  endfacet
  facet normal 1 0 0
    outer loop
      vertex 37.7 18 108.6
      vertex 37.7 0 124.6
      vertex 37.7 14.2 108.6
    endloop
  endfacet
  facet normal 1 0 0
    outer loop
      vertex 37.7 0 124.6
      vertex 37.7 11 85.3
      vertex 37.7 11 108.6
    endloop
  endfacet
  facet normal 1 0 0
    outer loop
      vertex 37.7 11 85.3
      vertex 37.7 0 124.6
      vertex 37.7 11 42.3
    endloop
  endfacet
  facet normal 1 0 0
    outer loop
      vertex 37.7 0 5.72205e-07
      vertex 37.7 11 42.3
      vertex 37.7 0 124.6
    endloop
  endfacet
  facet normal 1 0 0
    outer loop
      vertex 37.7 14.2 108.6
      vertex 37.7 0 124.6
      vertex 37.7 11 108.6
    endloop
  endfacet
  facet normal 1 0 0
    outer loop
      vertex 37.7 42.2 42.3
      vertex 37.7 50 124.6
      vertex 37.7 42.2 85.3
    endloop
  endfacet
  facet normal 1 0 0
    outer loop
      vertex 37.7 50 124.6
      vertex 37.7 42.2 42.3
      vertex 37.7 50 5.72205e-07
    endloop
  endfacet
  facet normal 1 -0 0
    outer loop
      vertex 37.7 42.2 16
      vertex 37.7 50 5.72205e-07
      vertex 37.7 42.2 42.3
    endloop
  endfacet
  facet normal 1 -0 0
    outer loop
      vertex 37.7 39 16
      vertex 37.7 50 5.72205e-07
      vertex 37.7 42.2 16
    endloop
  endfacet
  facet normal 1 0 0
    outer loop
      vertex 37.7 39 85.3
      vertex 37.7 35.2 85.3
      vertex 37.7 35.2 80.3
    endloop
  endfacet
  facet normal 1 0 0
    outer loop
      vertex 37.7 42.2 42.3
      vertex 37.7 35.2 47.1
      vertex 37.7 39 42.3
    endloop
  endfacet
  facet normal 1 0 0
    outer loop
      vertex 37.7 35.2 42.3
      vertex 37.7 39 42.3
      vertex 37.7 35.2 47.1
    endloop
  endfacet
  facet normal 1 0 0
    outer loop
      vertex 37.7 39 42.3
      vertex 37.7 35.2 42.3
      vertex 37.7 39 16
    endloop
  endfacet
  facet normal 1 0 0
    outer loop
      vertex 37.7 35.2 16
      vertex 37.7 39 16
      vertex 37.7 35.2 42.3
    endloop
  endfacet
  facet normal 1 -0 0
    outer loop
      vertex 37.7 35.2 16
      vertex 37.7 50 5.72205e-07
      vertex 37.7 39 16
    endloop
  endfacet
  facet normal 1 -0 0
    outer loop
      vertex 37.7 32 16
      vertex 37.7 50 5.72205e-07
      vertex 37.7 35.2 16
    endloop
  endfacet
  facet normal 1 0 0
    outer loop
      vertex 37.7 28.2 16
      vertex 37.7 32 16
      vertex 37.7 28.2 42.3
    endloop
  endfacet
  facet normal 1 -0 0
    outer loop
      vertex 37.7 28.2 16
      vertex 37.7 50 5.72205e-07
      vertex 37.7 32 16
    endloop
  endfacet
  facet normal 1 -0 0
    outer loop
      vertex 37.7 25 16
      vertex 37.7 50 5.72205e-07
      vertex 37.7 28.2 16
    endloop
  endfacet
  facet normal 1 0 0
    outer loop
      vertex 37.7 21.2 16
      vertex 37.7 25 16
      vertex 37.7 21.2 42.3
    endloop
  endfacet
  facet normal 1 0 0
    outer loop
      vertex 37.7 0 5.72205e-07
      vertex 37.7 25 16
      vertex 37.7 21.2 16
    endloop
  endfacet
  facet normal 1 0 0
    outer loop
      vertex 37.7 0 5.72205e-07
      vertex 37.7 21.2 16
      vertex 37.7 18 16
    endloop
  endfacet
  facet normal 1 -0 0
    outer loop
      vertex 37.7 11 85.3
      vertex 37.7 14.8 80.3
      vertex 37.7 14.2 85.3
    endloop
  endfacet
  facet normal 1 0 0
    outer loop
      vertex 37.7 11 42.3
      vertex 37.7 14.8 80.3
      vertex 37.7 11 85.3
    endloop
  endfacet
  facet normal 1 0 0
    outer loop
      vertex 37.7 18 42.3
      vertex 37.7 14.2 42.3
      vertex 37.7 18 16
    endloop
  endfacet
  facet normal 1 0 0
    outer loop
      vertex 37.7 14.2 16
      vertex 37.7 18 16
      vertex 37.7 14.2 42.3
    endloop
  endfacet
  facet normal 1 0 0
    outer loop
      vertex 37.7 0 5.72205e-07
      vertex 37.7 18 16
      vertex 37.7 14.2 16
    endloop
  endfacet
  facet normal 1 0 0
    outer loop
      vertex 37.7 0 5.72205e-07
      vertex 37.7 14.2 16
      vertex 37.7 11 16
    endloop
  endfacet
  facet normal 1 0 0
    outer loop
      vertex 37.7 25 16
      vertex 37.7 0 5.72205e-07
      vertex 37.7 50 5.72205e-07
    endloop
  endfacet
  facet normal 1 0 0
    outer loop
      vertex 37.7 11 42.3
      vertex 37.7 0 5.72205e-07
      vertex 37.7 11 16
    endloop
  endfacet
  facet normal 0 -1 0
    outer loop
      vertex -35.3 47.6 5.72205e-07
      vertex -29.3 47.6 122.2
      vertex -35.3 47.6 122.2
    endloop
  endfacet
  facet normal 0 -1 -0
    outer loop
      vertex -29.3 47.6 122.2
      vertex -35.3 47.6 5.72205e-07
      vertex -29.3 47.6 5.72205e-07
    endloop
  endfacet
  facet normal 0 -1 0
    outer loop
      vertex 29.3 47.6 5.72205e-07
      vertex 35.3 47.6 122.2
      vertex 29.3 47.6 122.2
    endloop
  endfacet
  facet normal 0 -1 -0
    outer loop
      vertex 35.3 47.6 122.2
      vertex 29.3 47.6 5.72205e-07
      vertex 35.3 47.6 5.72205e-07
    endloop
  endfacet
  facet normal 0 1 -0
    outer loop
      vertex 35.3 5 5.72205e-07
      vertex -35.3 5 122.2
      vertex 35.3 5 122.2
    endloop
  endfacet
  facet normal 0 1 0
    outer loop
      vertex -35.3 5 122.2
      vertex 35.3 5 5.72205e-07
      vertex -35.3 5 5.72205e-07
    endloop
  endfacet
  facet normal 1 0 0
    outer loop
      vertex -35.3 42.2 16
      vertex -35.3 47.6 122.2
      vertex -35.3 42.2 108.6
    endloop
  endfacet
  facet normal 1 0 0
    outer loop
      vertex -35.3 47.6 122.2
      vertex -35.3 39 108.6
      vertex -35.3 42.2 108.6
    endloop
  endfacet
  facet normal 1 0 0
    outer loop
      vertex -35.3 39 108.6
      vertex -35.3 35.2 108.6
      vertex -35.3 39 16
    endloop
  endfacet
  facet normal 1 0 0
    outer loop
      vertex -35.3 47.6 122.2
      vertex -35.3 35.2 108.6
      vertex -35.3 39 108.6
    endloop
  endfacet
  facet normal 1 0 0
    outer loop
      vertex -35.3 47.6 122.2
      vertex -35.3 32 108.6
      vertex -35.3 35.2 108.6
    endloop
  endfacet
  facet normal 1 0 0
    outer loop
      vertex -35.3 32 108.6
      vertex -35.3 28.2 108.6
      vertex -35.3 32 16
    endloop
  endfacet
  facet normal 1 0 0
    outer loop
      vertex -35.3 47.6 122.2
      vertex -35.3 28.2 108.6
      vertex -35.3 32 108.6
    endloop
  endfacet
  facet normal 1 0 0
    outer loop
      vertex -35.3 47.6 122.2
      vertex -35.3 25 108.6
      vertex -35.3 28.2 108.6
    endloop
  endfacet
  facet normal 1 0 0
    outer loop
      vertex -35.3 25 108.6
      vertex -35.3 21.2 108.6
      vertex -35.3 25 16
    endloop
  endfacet
  facet normal 1 -0 0
    outer loop
      vertex -35.3 5 122.2
      vertex -35.3 25 108.6
      vertex -35.3 47.6 122.2
    endloop
  endfacet
  facet normal 1 0 0
    outer loop
      vertex -35.3 25 108.6
      vertex -35.3 5 122.2
      vertex -35.3 21.2 108.6
    endloop
  endfacet
  facet normal 1 0 0
    outer loop
      vertex -35.3 18 108.6
      vertex -35.3 14.2 108.6
      vertex -35.3 18 16
    endloop
  endfacet
  facet normal 1 0 0
    outer loop
      vertex -35.3 21.2 108.6
      vertex -35.3 5 122.2
      vertex -35.3 18 108.6
    endloop
  endfacet
  facet normal 1 0 0
    outer loop
      vertex -35.3 18 108.6
      vertex -35.3 5 122.2
      vertex -35.3 14.2 108.6
    endloop
  endfacet
  facet normal 1 0 0
    outer loop
      vertex -35.3 11 108.6
      vertex -35.3 5 122.2
      vertex -35.3 11 16
    endloop
  endfacet
  facet normal 1 0 0
    outer loop
      vertex -35.3 14.2 108.6
      vertex -35.3 5 122.2
      vertex -35.3 11 108.6
    endloop
  endfacet
  facet normal 1 0 0
    outer loop
      vertex -35.3 47.6 122.2
      vertex -35.3 42.2 16
      vertex -35.3 47.6 5.72205e-07
    endloop
  endfacet
  facet normal 1 -0 0
    outer loop
      vertex -35.3 39 16
      vertex -35.3 47.6 5.72205e-07
      vertex -35.3 42.2 16
    endloop
  endfacet
  facet normal 1 0 0
    outer loop
      vertex -35.3 35.2 16
      vertex -35.3 39 16
      vertex -35.3 35.2 108.6
    endloop
  endfacet
  facet normal 1 -0 0
    outer loop
      vertex -35.3 35.2 16
      vertex -35.3 47.6 5.72205e-07
      vertex -35.3 39 16
    endloop
  endfacet
  facet normal 1 -0 0
    outer loop
      vertex -35.3 32 16
      vertex -35.3 47.6 5.72205e-07
      vertex -35.3 35.2 16
    endloop
  endfacet
  facet normal 1 0 0
    outer loop
      vertex -35.3 28.2 16
      vertex -35.3 32 16
      vertex -35.3 28.2 108.6
    endloop
  endfacet
  facet normal 1 -0 0
    outer loop
      vertex -35.3 28.2 16
      vertex -35.3 47.6 5.72205e-07
      vertex -35.3 32 16
    endloop
  endfacet
  facet normal 1 -0 0
    outer loop
      vertex -35.3 25 16
      vertex -35.3 47.6 5.72205e-07
      vertex -35.3 28.2 16
    endloop
  endfacet
  facet normal 1 0 0
    outer loop
      vertex -35.3 21.2 16
      vertex -35.3 25 16
      vertex -35.3 21.2 108.6
    endloop
  endfacet
  facet normal 1 0 0
    outer loop
      vertex -35.3 5 5.72205e-07
      vertex -35.3 25 16
      vertex -35.3 21.2 16
    endloop
  endfacet
  facet normal 1 0 0
    outer loop
      vertex -35.3 5 5.72205e-07
      vertex -35.3 21.2 16
      vertex -35.3 18 16
    endloop
  endfacet
  facet normal 1 0 0
    outer loop
      vertex -35.3 14.2 16
      vertex -35.3 18 16
      vertex -35.3 14.2 108.6
    endloop
  endfacet
  facet normal 1 0 0
    outer loop
      vertex -35.3 5 5.72205e-07
      vertex -35.3 18 16
      vertex -35.3 14.2 16
    endloop
  endfacet
  facet normal 1 0 0
    outer loop
      vertex -35.3 5 5.72205e-07
      vertex -35.3 14.2 16
      vertex -35.3 11 16
    endloop
  endfacet
  facet normal 1 0 0
    outer loop
      vertex -35.3 25 16
      vertex -35.3 5 5.72205e-07
      vertex -35.3 47.6 5.72205e-07
    endloop
  endfacet
  facet normal 1 0 0
    outer loop
      vertex -35.3 5 5.72205e-07
      vertex -35.3 11 16
      vertex -35.3 5 122.2
    endloop
  endfacet
  facet normal -1 0 0
    outer loop
      vertex 35.3 11 85.3
      vertex 35.3 14.8 80.3
      vertex 35.3 11 42.3
    endloop
  endfacet
  facet normal -1 0 0
    outer loop
      vertex 35.3 14.8 80.3
      vertex 35.3 11 85.3
      vertex 35.3 14.2 85.3
    endloop
  endfacet
  facet normal -1 0 0
    outer loop
      vertex 35.3 33 57.3
      vertex 35.3 34 48.3
      vertex 35.3 33 51.3
    endloop
  endfacet
  facet normal -1 0 0
    outer loop
      vertex 35.3 34 48.3
      vertex 35.3 17 51.3
      vertex 35.3 33 51.3
    endloop
  endfacet
  facet normal -1 -0 0
    outer loop
      vertex 35.3 17 51.3
      vertex 35.3 16 48.3
      vertex 35.3 17 57.3
    endloop
  endfacet
  facet normal -1 0 0
    outer loop
      vertex 35.3 16 48.3
      vertex 35.3 17 51.3
      vertex 35.3 34 48.3
    endloop
  endfacet
  facet normal -1 0 0
    outer loop
      vertex 35.3 34 80.3
      vertex 35.3 35.2 85.3
      vertex 35.3 35.2 80.3
    endloop
  endfacet
  facet normal -1 0 0
    outer loop
      vertex 35.3 34 48.3
      vertex 35.3 33 57.3
      vertex 35.3 34 80.3
    endloop
  endfacet
  facet normal -1 0 0
    outer loop
      vertex 35.3 34 80.3
      vertex 35.3 32 85.3
      vertex 35.3 35.2 85.3
    endloop
  endfacet
  facet normal -1 0 0
    outer loop
      vertex 35.3 16 80.3
      vertex 35.3 34 80.3
      vertex 35.3 33 57.3
    endloop
  endfacet
  facet normal -1 0 0
    outer loop
      vertex 35.3 32 85.3
      vertex 35.3 28.2 85.3
      vertex 35.3 32 108.6
    endloop
  endfacet
  facet normal -1 0 0
    outer loop
      vertex 35.3 34 80.3
      vertex 35.3 28.2 85.3
      vertex 35.3 32 85.3
    endloop
  endfacet
  facet normal -1 0 -0
    outer loop
      vertex 35.3 25 85.3
      vertex 35.3 34 80.3
      vertex 35.3 16 80.3
    endloop
  endfacet
  facet normal -1 0 0
    outer loop
      vertex 35.3 25 85.3
      vertex 35.3 21.2 85.3
      vertex 35.3 25 108.6
    endloop
  endfacet
  facet normal -1 0 0
    outer loop
      vertex 35.3 34 80.3
      vertex 35.3 25 85.3
      vertex 35.3 28.2 85.3
    endloop
  endfacet
  facet normal -1 -0 0
    outer loop
      vertex 35.3 25 85.3
      vertex 35.3 16 80.3
      vertex 35.3 21.2 85.3
    endloop
  endfacet
  facet normal -1 -0 0
    outer loop
      vertex 35.3 21.2 85.3
      vertex 35.3 16 80.3
      vertex 35.3 18 85.3
    endloop
  endfacet
  facet normal -1 0 0
    outer loop
      vertex 35.3 16 80.3
      vertex 35.3 33 57.3
      vertex 35.3 17 57.3
    endloop
  endfacet
  facet normal -1 0 0
    outer loop
      vertex 35.3 32 42.3
      vertex 35.3 35.2 47.1
      vertex 35.3 35.2 42.3
    endloop
  endfacet
  facet normal -1 0 0
    outer loop
      vertex 35.3 28.2 42.3
      vertex 35.3 32 42.3
      vertex 35.3 28.2 16
    endloop
  endfacet
  facet normal -1 0 0
    outer loop
      vertex 35.3 28.2 42.3
      vertex 35.3 35.2 47.1
      vertex 35.3 32 42.3
    endloop
  endfacet
  facet normal -1 0 0
    outer loop
      vertex 35.3 25 42.3
      vertex 35.3 35.2 47.1
      vertex 35.3 28.2 42.3
    endloop
  endfacet
  facet normal -1 0 0
    outer loop
      vertex 35.3 21.2 42.3
      vertex 35.3 25 42.3
      vertex 35.3 21.2 16
    endloop
  endfacet
  facet normal -1 0 0
    outer loop
      vertex 35.3 14.8 47.1
      vertex 35.3 25 42.3
      vertex 35.3 21.2 42.3
    endloop
  endfacet
  facet normal -1 0 0
    outer loop
      vertex 35.3 14.8 47.1
      vertex 35.3 21.2 42.3
      vertex 35.3 18 42.3
    endloop
  endfacet
  facet normal -1 0 0
    outer loop
      vertex 35.3 25 42.3
      vertex 35.3 14.8 47.1
      vertex 35.3 35.2 47.1
    endloop
  endfacet
  facet normal -1 0 0
    outer loop
      vertex 35.3 35.2 47.1
      vertex 35.3 42.2 42.3
      vertex 35.3 39 42.3
    endloop
  endfacet
  facet normal -1 0 0
    outer loop
      vertex 35.3 35.2 80.3
      vertex 35.3 42.2 42.3
      vertex 35.3 35.2 47.1
    endloop
  endfacet
  facet normal -1 0 0
    outer loop
      vertex 35.3 42.2 42.3
      vertex 35.3 47.6 5.72205e-07
      vertex 35.3 42.2 16
    endloop
  endfacet
  facet normal -1 0 0
    outer loop
      vertex 35.3 47.6 5.72205e-07
      vertex 35.3 39 16
      vertex 35.3 42.2 16
    endloop
  endfacet
  facet normal -1 0 0
    outer loop
      vertex 35.3 35.2 42.3
      vertex 35.3 39 42.3
      vertex 35.3 39 16
    endloop
  endfacet
  facet normal -1 0 0
    outer loop
      vertex 35.3 42.2 42.3
      vertex 35.3 35.2 80.3
      vertex 35.3 42.2 85.3
    endloop
  endfacet
  facet normal -1 0 0
    outer loop
      vertex 35.3 35.2 42.3
      vertex 35.3 39 16
      vertex 35.3 35.2 16
    endloop
  endfacet
  facet normal -1 0 0
    outer loop
      vertex 35.3 47.6 5.72205e-07
      vertex 35.3 35.2 16
      vertex 35.3 39 16
    endloop
  endfacet
  facet normal -1 0 0
    outer loop
      vertex 35.3 47.6 5.72205e-07
      vertex 35.3 32 16
      vertex 35.3 35.2 16
    endloop
  endfacet
  facet normal -1 0 0
    outer loop
      vertex 35.3 32 16
      vertex 35.3 28.2 16
      vertex 35.3 32 42.3
    endloop
  endfacet
  facet normal -1 0 0
    outer loop
      vertex 35.3 47.6 5.72205e-07
      vertex 35.3 28.2 16
      vertex 35.3 32 16
    endloop
  endfacet
  facet normal -1 0 0
    outer loop
      vertex 35.3 47.6 5.72205e-07
      vertex 35.3 25 16
      vertex 35.3 28.2 16
    endloop
  endfacet
  facet normal -1 0 0
    outer loop
      vertex 35.3 25 16
      vertex 35.3 21.2 16
      vertex 35.3 25 42.3
    endloop
  endfacet
  facet normal -1 0 0
    outer loop
      vertex 35.3 5 5.72205e-07
      vertex 35.3 25 16
      vertex 35.3 47.6 5.72205e-07
    endloop
  endfacet
  facet normal -1 -0 0
    outer loop
      vertex 35.3 25 16
      vertex 35.3 5 5.72205e-07
      vertex 35.3 21.2 16
    endloop
  endfacet
  facet normal -1 0 0
    outer loop
      vertex 35.3 14.2 42.3
      vertex 35.3 18 42.3
      vertex 35.3 18 16
    endloop
  endfacet
  facet normal -1 0 0
    outer loop
      vertex 35.3 18 42.3
      vertex 35.3 14.2 42.3
      vertex 35.3 14.8 47.1
    endloop
  endfacet
  facet normal -1 0 0
    outer loop
      vertex 35.3 14.2 42.3
      vertex 35.3 18 16
      vertex 35.3 14.2 16
    endloop
  endfacet
  facet normal -1 -0 0
    outer loop
      vertex 35.3 21.2 16
      vertex 35.3 5 5.72205e-07
      vertex 35.3 18 16
    endloop
  endfacet
  facet normal -1 -0 0
    outer loop
      vertex 35.3 18 16
      vertex 35.3 5 5.72205e-07
      vertex 35.3 14.2 16
    endloop
  endfacet
  facet normal -1 0 0
    outer loop
      vertex 35.3 5 5.72205e-07
      vertex 35.3 11 42.3
      vertex 35.3 11 16
    endloop
  endfacet
  facet normal -1 0 0
    outer loop
      vertex 35.3 5 122.2
      vertex 35.3 11 42.3
      vertex 35.3 5 5.72205e-07
    endloop
  endfacet
  facet normal -1 0 0
    outer loop
      vertex 35.3 11 42.3
      vertex 35.3 5 122.2
      vertex 35.3 11 85.3
    endloop
  endfacet
  facet normal -1 -0 0
    outer loop
      vertex 35.3 14.2 16
      vertex 35.3 5 5.72205e-07
      vertex 35.3 11 16
    endloop
  endfacet
  facet normal -1 0 0
    outer loop
      vertex 35.3 47.6 5.72205e-07
      vertex 35.3 42.2 42.3
      vertex 35.3 47.6 122.2
    endloop
  endfacet
  facet normal -1 0 0
    outer loop
      vertex 35.3 42.2 85.3
      vertex 35.3 47.6 122.2
      vertex 35.3 42.2 42.3
    endloop
  endfacet
  facet normal -1 0 0
    outer loop
      vertex 35.3 42.2 108.6
      vertex 35.3 47.6 122.2
      vertex 35.3 42.2 85.3
    endloop
  endfacet
  facet normal -1 0 0
    outer loop
      vertex 35.3 39 108.6
      vertex 35.3 47.6 122.2
      vertex 35.3 42.2 108.6
    endloop
  endfacet
  facet normal -1 0 0
    outer loop
      vertex 35.3 39 42.3
      vertex 35.3 35.2 42.3
      vertex 35.3 35.2 47.1
    endloop
  endfacet
  facet normal -1 -0 0
    outer loop
      vertex 35.3 42.2 85.3
      vertex 35.3 35.2 80.3
      vertex 35.3 39 85.3
    endloop
  endfacet
  facet normal -1 0 0
    outer loop
      vertex 35.3 35.2 85.3
      vertex 35.3 39 85.3
      vertex 35.3 35.2 80.3
    endloop
  endfacet
  facet normal -1 0 0
    outer loop
      vertex 35.3 39 85.3
      vertex 35.3 35.2 85.3
      vertex 35.3 39 108.6
    endloop
  endfacet
  facet normal -1 0 0
    outer loop
      vertex 35.3 35.2 108.6
      vertex 35.3 39 108.6
      vertex 35.3 35.2 85.3
    endloop
  endfacet
  facet normal -1 0 0
    outer loop
      vertex 35.3 35.2 108.6
      vertex 35.3 47.6 122.2
      vertex 35.3 39 108.6
    endloop
  endfacet
  facet normal -1 0 0
    outer loop
      vertex 35.3 32 108.6
      vertex 35.3 47.6 122.2
      vertex 35.3 35.2 108.6
    endloop
  endfacet
  facet normal -1 0 0
    outer loop
      vertex 35.3 28.2 108.6
      vertex 35.3 32 108.6
      vertex 35.3 28.2 85.3
    endloop
  endfacet
  facet normal -1 0 0
    outer loop
      vertex 35.3 28.2 108.6
      vertex 35.3 47.6 122.2
      vertex 35.3 32 108.6
    endloop
  endfacet
  facet normal -1 0 0
    outer loop
      vertex 35.3 25 108.6
      vertex 35.3 47.6 122.2
      vertex 35.3 28.2 108.6
    endloop
  endfacet
  facet normal -1 0 0
    outer loop
      vertex 35.3 21.2 108.6
      vertex 35.3 25 108.6
      vertex 35.3 21.2 85.3
    endloop
  endfacet
  facet normal -1 0 0
    outer loop
      vertex 35.3 5 122.2
      vertex 35.3 25 108.6
      vertex 35.3 21.2 108.6
    endloop
  endfacet
  facet normal -1 0 0
    outer loop
      vertex 35.3 5 122.2
      vertex 35.3 21.2 108.6
      vertex 35.3 18 108.6
    endloop
  endfacet
  facet normal -1 0 0
    outer loop
      vertex 35.3 16 80.3
      vertex 35.3 17 57.3
      vertex 35.3 16 48.3
    endloop
  endfacet
  facet normal -1 0 0
    outer loop
      vertex 35.3 14.2 85.3
      vertex 35.3 18 85.3
      vertex 35.3 16 80.3
    endloop
  endfacet
  facet normal -1 0 0
    outer loop
      vertex 35.3 14.2 85.3
      vertex 35.3 16 80.3
      vertex 35.3 14.8 80.3
    endloop
  endfacet
  facet normal -1 0 0
    outer loop
      vertex 35.3 11 42.3
      vertex 35.3 14.8 47.1
      vertex 35.3 14.2 42.3
    endloop
  endfacet
  facet normal -1 -0 0
    outer loop
      vertex 35.3 14.8 47.1
      vertex 35.3 11 42.3
      vertex 35.3 14.8 80.3
    endloop
  endfacet
  facet normal -1 0 0
    outer loop
      vertex 35.3 18 85.3
      vertex 35.3 14.2 85.3
      vertex 35.3 18 108.6
    endloop
  endfacet
  facet normal -1 0 0
    outer loop
      vertex 35.3 14.2 108.6
      vertex 35.3 18 108.6
      vertex 35.3 14.2 85.3
    endloop
  endfacet
  facet normal -1 0 0
    outer loop
      vertex 35.3 5 122.2
      vertex 35.3 18 108.6
      vertex 35.3 14.2 108.6
    endloop
  endfacet
  facet normal -1 0 0
    outer loop
      vertex 35.3 5 122.2
      vertex 35.3 14.2 108.6
      vertex 35.3 11 108.6
    endloop
  endfacet
  facet normal -1 0 0
    outer loop
      vertex 35.3 25 108.6
      vertex 35.3 5 122.2
      vertex 35.3 47.6 122.2
    endloop
  endfacet
  facet normal -1 0 0
    outer loop
      vertex 35.3 11 85.3
      vertex 35.3 5 122.2
      vertex 35.3 11 108.6
    endloop
  endfacet
  facet normal 1 -0 0
    outer loop
      vertex -29.3 47.6 122.2
      vertex -29.3 50 5.72205e-07
      vertex -29.3 50 122.2
    endloop
  endfacet
  facet normal 1 0 0
    outer loop
      vertex -29.3 50 5.72205e-07
      vertex -29.3 47.6 122.2
      vertex -29.3 47.6 5.72205e-07
    endloop
  endfacet
  facet normal -1 0 0
    outer loop
      vertex 29.3 47.6 5.72205e-07
      vertex 29.3 50 122.2
      vertex 29.3 50 5.72205e-07
    endloop
  endfacet
  facet normal -1 -0 0
    outer loop
      vertex 29.3 50 122.2
      vertex 29.3 47.6 5.72205e-07
      vertex 29.3 47.6 122.2
    endloop
  endfacet
  facet normal -1 0 0
    outer loop
      vertex 34.09 17 53.8
      vertex 34.09 33 54.8
      vertex 34.09 33 53.8
    endloop
  endfacet
  facet normal -1 -0 0
    outer loop
      vertex 34.09 33 54.8
      vertex 34.09 17 53.8
      vertex 34.09 17 54.8
    endloop
  endfacet
  facet normal -0.900114 0 -0.435655
    outer loop
      vertex 35.3 17 51.3
      vertex 34.09 33 53.8
      vertex 35.3 33 51.3
    endloop
  endfacet
  facet normal -0.900114 -0 -0.435655
    outer loop
      vertex 34.09 33 53.8
      vertex 35.3 17 51.3
      vertex 34.09 17 53.8
    endloop
  endfacet
  facet normal 0 -1 0
    outer loop
      vertex 34.09 17 53.8
      vertex 35.3 17 57.3
      vertex 34.09 17 54.8
    endloop
  endfacet
  facet normal 0 -1 -0
    outer loop
      vertex 35.3 17 57.3
      vertex 34.09 17 53.8
      vertex 35.3 17 51.3
    endloop
  endfacet
  facet normal 0 1 0
    outer loop
      vertex 35.3 33 57.3
      vertex 34.09 33 53.8
      vertex 34.09 33 54.8
    endloop
  endfacet
  facet normal -0 1 0
    outer loop
      vertex 34.09 33 53.8
      vertex 35.3 33 57.3
      vertex 35.3 33 51.3
    endloop
  endfacet
  facet normal -0.900114 0 0.435655
    outer loop
      vertex 34.09 17 54.8
      vertex 35.3 33 57.3
      vertex 34.09 33 54.8
    endloop
  endfacet
  facet normal -0.900114 0 0.435655
    outer loop
      vertex 35.3 33 57.3
      vertex 34.09 17 54.8
      vertex 35.3 17 57.3
    endloop
  endfacet
  facet normal 0 0 -1
    outer loop
      vertex 35.3 5 122.2
      vertex 31.3 13 122.2
      vertex 35.3 47.6 122.2
    endloop
  endfacet
  facet normal 0 0 -1
    outer loop
      vertex 35.3 5 122.2
      vertex -31.3 13 122.2
      vertex 31.3 13 122.2
    endloop
  endfacet
  facet normal -0 0 -1
    outer loop
      vertex -31.3 13 122.2
      vertex -35.3 5 122.2
      vertex -31.3 39.6 122.2
    endloop
  endfacet
  facet normal 0 0 -1
    outer loop
      vertex -35.3 5 122.2
      vertex -31.3 13 122.2
      vertex 35.3 5 122.2
    endloop
  endfacet
  facet normal 0 0 -1
    outer loop
      vertex 31.3 39.6 122.2
      vertex 35.3 47.6 122.2
      vertex 31.3 13 122.2
    endloop
  endfacet
  facet normal 0 0 -1
    outer loop
      vertex 31.3 39.6 122.2
      vertex 29.3 47.6 122.2
      vertex 35.3 47.6 122.2
    endloop
  endfacet
  facet normal 0 0 -1
    outer loop
      vertex 29.3 47.6 122.2
      vertex -29.3 47.6 122.2
      vertex 29.3 50 122.2
    endloop
  endfacet
  facet normal 0 0 -1
    outer loop
      vertex 31.3 39.6 122.2
      vertex -29.3 47.6 122.2
      vertex 29.3 47.6 122.2
    endloop
  endfacet
  facet normal 0 0 -1
    outer loop
      vertex -31.3 39.6 122.2
      vertex -29.3 47.6 122.2
      vertex 31.3 39.6 122.2
    endloop
  endfacet
  facet normal 0 0 -1
    outer loop
      vertex -31.3 39.6 122.2
      vertex -35.3 47.6 122.2
      vertex -29.3 47.6 122.2
    endloop
  endfacet
  facet normal 0 0 -1
    outer loop
      vertex -35.3 47.6 122.2
      vertex -31.3 39.6 122.2
      vertex -35.3 5 122.2
    endloop
  endfacet
  facet normal -0 0 -1
    outer loop
      vertex 29.3 50 122.2
      vertex -29.3 47.6 122.2
      vertex -29.3 50 122.2
    endloop
  endfacet
  facet normal 0 0 1
    outer loop
      vertex 29.3 50 124.6
      vertex -29.3 50 124.6
      vertex 29.3 47.6 124.6
    endloop
  endfacet
  facet normal 0 0 1
    outer loop
      vertex 35.3 47.6 124.6
      vertex 31.3 39.6 124.6
      vertex 35.3 5 124.6
    endloop
  endfacet
  facet normal -0 0 1
    outer loop
      vertex 29.3 47.6 124.6
      vertex 31.3 39.6 124.6
      vertex 35.3 47.6 124.6
    endloop
  endfacet
  facet normal 0 0 1
    outer loop
      vertex -29.3 47.6 124.6
      vertex 29.3 47.6 124.6
      vertex -29.3 50 124.6
    endloop
  endfacet
  facet normal 0 0 1
    outer loop
      vertex 29.3 47.6 124.6
      vertex -29.3 47.6 124.6
      vertex 31.3 39.6 124.6
    endloop
  endfacet
  facet normal 0 0 1
    outer loop
      vertex -29.3 47.6 124.6
      vertex -31.3 39.6 124.6
      vertex 31.3 39.6 124.6
    endloop
  endfacet
  facet normal 0 0 1
    outer loop
      vertex -31.3 39.6 124.6
      vertex -35.3 47.6 124.6
      vertex -31.3 13 124.6
    endloop
  endfacet
  facet normal -0 0 1
    outer loop
      vertex -35.3 47.6 124.6
      vertex -31.3 39.6 124.6
      vertex -29.3 47.6 124.6
    endloop
  endfacet
  facet normal -0 0 1
    outer loop
      vertex 31.3 13 124.6
      vertex 35.3 5 124.6
      vertex 31.3 39.6 124.6
    endloop
  endfacet
  facet normal -0 0 1
    outer loop
      vertex -31.3 13 124.6
      vertex 35.3 5 124.6
      vertex 31.3 13 124.6
    endloop
  endfacet
  facet normal 0 0 1
    outer loop
      vertex -31.3 13 124.6
      vertex -35.3 5 124.6
      vertex 35.3 5 124.6
    endloop
  endfacet
  facet normal 0 0 1
    outer loop
      vertex -35.3 5 124.6
      vertex -31.3 13 124.6
      vertex -35.3 47.6 124.6
    endloop
  endfacet
  facet normal -1 0 0
    outer loop
      vertex 31.3 13 122.2
      vertex 31.3 39.6 124.6
      vertex 31.3 39.6 122.2
    endloop
  endfacet
  facet normal -1 -0 0
    outer loop
      vertex 31.3 39.6 124.6
      vertex 31.3 13 122.2
      vertex 31.3 13 124.6
    endloop
  endfacet
  facet normal 0 -1 0
    outer loop
      vertex -31.3 39.6 122.2
      vertex 31.3 39.6 124.6
      vertex -31.3 39.6 124.6
    endloop
  endfacet
  facet normal 0 -1 -0
    outer loop
      vertex 31.3 39.6 124.6
      vertex -31.3 39.6 122.2
      vertex 31.3 39.6 122.2
    endloop
  endfacet
  facet normal 0 1 -0
    outer loop
      vertex 31.3 13 122.2
      vertex -31.3 13 124.6
      vertex 31.3 13 124.6
    endloop
  endfacet
  facet normal 0 1 0
    outer loop
      vertex -31.3 13 124.6
      vertex 31.3 13 122.2
      vertex -31.3 13 122.2
    endloop
  endfacet
  facet normal 1 -0 0
    outer loop
      vertex -31.3 13 124.6
      vertex -31.3 39.6 122.2
      vertex -31.3 39.6 124.6
    endloop
  endfacet
  facet normal 1 0 0
    outer loop
      vertex -31.3 39.6 122.2
      vertex -31.3 13 124.6
      vertex -31.3 13 122.2
    endloop
  endfacet
  facet normal -0 0 1
    outer loop
      vertex -22.45 3.14999 16.15
      vertex -17.55 0 16.15
      vertex -15.95 3.14999 16.15
    endloop
  endfacet
  facet normal 0 0 1
    outer loop
      vertex -17.55 0 16.15
      vertex -22.45 3.14999 16.15
      vertex -22.45 0 16.15
    endloop
  endfacet
  facet normal -0.891578 0.452867 0
    outer loop
      vertex -17.55 0 16.15
      vertex -15.95 3.14999 124.6
      vertex -15.95 3.14999 16.15
    endloop
  endfacet
  facet normal -0.891578 0.452867 0
    outer loop
      vertex -15.95 3.14999 124.6
      vertex -17.55 0 16.15
      vertex -17.55 0 124.6
    endloop
  endfacet
  facet normal 0 -1 0
    outer loop
      vertex -22.45 3.14999 16.15
      vertex -15.95 3.14999 124.6
      vertex -22.45 3.14999 124.6
    endloop
  endfacet
  facet normal 0 -1 -0
    outer loop
      vertex -15.95 3.14999 124.6
      vertex -22.45 3.14999 16.15
      vertex -15.95 3.14999 16.15
    endloop
  endfacet
  facet normal 1 -0 0
    outer loop
      vertex -22.45 0 124.6
      vertex -22.45 3.14999 16.15
      vertex -22.45 3.14999 124.6
    endloop
  endfacet
  facet normal 1 0 0
    outer loop
      vertex -22.45 3.14999 16.15
      vertex -22.45 0 124.6
      vertex -22.45 0 16.15
    endloop
  endfacet
  facet normal -0 0 1
    outer loop
      vertex 17.55 3.14999 16.15
      vertex 22.45 0 16.15
      vertex 24.05 3.14999 16.15
    endloop
  endfacet
  facet normal 0 0 1
    outer loop
      vertex 22.45 0 16.15
      vertex 17.55 3.14999 16.15
      vertex 17.55 0 16.15
    endloop
  endfacet
  facet normal -0.891578 0.452867 0
    outer loop
      vertex 22.45 0 16.15
      vertex 24.05 3.14999 124.6
      vertex 24.05 3.14999 16.15
    endloop
  endfacet
  facet normal -0.891578 0.452867 0
    outer loop
      vertex 24.05 3.14999 124.6
      vertex 22.45 0 16.15
      vertex 22.45 0 124.6
    endloop
  endfacet
  facet normal 0 -1 0
    outer loop
      vertex 17.55 3.14999 16.15
      vertex 24.05 3.14999 124.6
      vertex 17.55 3.14999 124.6
    endloop
  endfacet
  facet normal 0 -1 -0
    outer loop
      vertex 24.05 3.14999 124.6
      vertex 17.55 3.14999 16.15
      vertex 24.05 3.14999 16.15
    endloop
  endfacet
  facet normal 1 -0 0
    outer loop
      vertex 17.55 0 124.6
      vertex 17.55 3.14999 16.15
      vertex 17.55 3.14999 124.6
    endloop
  endfacet
  facet normal 1 0 0
    outer loop
      vertex 17.55 3.14999 16.15
      vertex 17.55 0 124.6
      vertex 17.55 0 16.15
    endloop
  endfacet
endsolid OpenSCAD_Model
