solid OpenSCAD_Model
  facet normal 0 -1 0
    outer loop
      vertex -60.75 47 6
      vertex -58.35 47 71.6
      vertex -60.75 47 71.6
    endloop
  endfacet
  facet normal 0 -1 -0
    outer loop
      vertex -58.35 47 71.6
      vertex -60.75 47 6
      vertex -58.35 47 6
    endloop
  endfacet
  facet normal 0 1 -0
    outer loop
      vertex -58.35 6 6
      vertex -60.75 6 71.6
      vertex -58.35 6 71.6
    endloop
  endfacet
  facet normal 0 1 0
    outer loop
      vertex -60.75 6 71.6
      vertex -58.35 6 6
      vertex -60.75 6 6
    endloop
  endfacet
  facet normal -0 0 1
    outer loop
      vertex -60.75 47 6
      vertex -58.35 6 6
      vertex -58.35 47 6
    endloop
  endfacet
  facet normal 0 0 1
    outer loop
      vertex -58.35 6 6
      vertex -60.75 47 6
      vertex -60.75 6 6
    endloop
  endfacet
  facet normal 0 0 -1
    outer loop
      vertex -60.75 6 71.6
      vertex -58.35 47 71.6
      vertex -58.35 6 71.6
    endloop
  endfacet
  facet normal -0 0 -1
    outer loop
      vertex -58.35 47 71.6
      vertex -60.75 6 71.6
      vertex -60.75 47 71.6
    endloop
  endfacet
  facet normal 0 -1 0
    outer loop
      vertex 58.35 47 6
      vertex 60.75 47 71.6
      vertex 58.35 47 71.6
    endloop
  endfacet
  facet normal 0 -1 -0
    outer loop
      vertex 60.75 47 71.6
      vertex 58.35 47 6
      vertex 60.75 47 6
    endloop
  endfacet
  facet normal 0 1 -0
    outer loop
      vertex 60.75 6 6
      vertex 58.35 6 71.6
      vertex 60.75 6 71.6
    endloop
  endfacet
  facet normal 0 1 0
    outer loop
      vertex 58.35 6 71.6
      vertex 60.75 6 6
      vertex 58.35 6 6
    endloop
  endfacet
  facet normal -0 0 1
    outer loop
      vertex 58.35 47 6
      vertex 60.75 6 6
      vertex 60.75 47 6
    endloop
  endfacet
  facet normal 0 0 1
    outer loop
      vertex 60.75 6 6
      vertex 58.35 47 6
      vertex 58.35 6 6
    endloop
  endfacet
  facet normal 0 0 -1
    outer loop
      vertex 58.35 6 71.6
      vertex 60.75 47 71.6
      vertex 60.75 6 71.6
    endloop
  endfacet
  facet normal -0 0 -1
    outer loop
      vertex 60.75 47 71.6
      vertex 58.35 6 71.6
      vertex 58.35 47 71.6
    endloop
  endfacet
  facet normal -1 0 0
    outer loop
      vertex -14 0 6
      vertex -14 5 71.6
      vertex -14 5 6
    endloop
  endfacet
  facet normal -1 -0 0
    outer loop
      vertex -14 5 71.6
      vertex -14 0 6
      vertex -14 0 71.6
    endloop
  endfacet
  facet normal 1 -0 0
    outer loop
      vertex -32 0 71.6
      vertex -32 5 6
      vertex -32 5 71.6
    endloop
  endfacet
  facet normal 1 0 0
    outer loop
      vertex -32 5 6
      vertex -32 0 71.6
      vertex -32 0 6
    endloop
  endfacet
  facet normal -0 0 1
    outer loop
      vertex -32 5 6
      vertex -14 0 6
      vertex -14 5 6
    endloop
  endfacet
  facet normal 0 0 1
    outer loop
      vertex -14 0 6
      vertex -32 5 6
      vertex -32 0 6
    endloop
  endfacet
  facet normal 0 0 -1
    outer loop
      vertex -32 0 71.6
      vertex -14 5 71.6
      vertex -14 0 71.6
    endloop
  endfacet
  facet normal -0 0 -1
    outer loop
      vertex -14 5 71.6
      vertex -32 0 71.6
      vertex -32 5 71.6
    endloop
  endfacet
  facet normal -1 0 0
    outer loop
      vertex 32 0 6
      vertex 32 5 71.6
      vertex 32 5 6
    endloop
  endfacet
  facet normal -1 -0 0
    outer loop
      vertex 32 5 71.6
      vertex 32 0 6
      vertex 32 0 71.6
    endloop
  endfacet
  facet normal 1 -0 0
    outer loop
      vertex 14 0 71.6
      vertex 14 5 6
      vertex 14 5 71.6
    endloop
  endfacet
  facet normal 1 0 0
    outer loop
      vertex 14 5 6
      vertex 14 0 71.6
      vertex 14 0 6
    endloop
  endfacet
  facet normal -0 0 1
    outer loop
      vertex 14 5 6
      vertex 32 0 6
      vertex 32 5 6
    endloop
  endfacet
  facet normal 0 0 1
    outer loop
      vertex 32 0 6
      vertex 14 5 6
      vertex 14 0 6
    endloop
  endfacet
  facet normal 0 0 -1
    outer loop
      vertex 14 0 71.6
      vertex 32 5 71.6
      vertex 32 0 71.6
    endloop
  endfacet
  facet normal -0 0 -1
    outer loop
      vertex 32 5 71.6
      vertex 14 0 71.6
      vertex 14 5 71.6
    endloop
  endfacet
  facet normal -0 0 1
    outer loop
      vertex -42.45 3.14999 13.85
      vertex -37.55 0 13.85
      vertex -35.95 3.14999 13.85
    endloop
  endfacet
  facet normal 0 0 1
    outer loop
      vertex -37.55 0 13.85
      vertex -42.45 3.14999 13.85
      vertex -42.45 0 13.85
    endloop
  endfacet
  facet normal -0.891578 0.452867 0
    outer loop
      vertex -37.55 0 13.85
      vertex -35.95 3.14999 80
      vertex -35.95 3.14999 13.85
    endloop
  endfacet
  facet normal -0.891578 0.452867 0
    outer loop
      vertex -35.95 3.14999 80
      vertex -37.55 0 13.85
      vertex -37.55 0 80
    endloop
  endfacet
  facet normal 0 -1 0
    outer loop
      vertex -42.45 3.14999 13.85
      vertex -35.95 3.14999 80
      vertex -42.45 3.14999 80
    endloop
  endfacet
  facet normal 0 -1 -0
    outer loop
      vertex -35.95 3.14999 80
      vertex -42.45 3.14999 13.85
      vertex -35.95 3.14999 13.85
    endloop
  endfacet
  facet normal 1 -0 0
    outer loop
      vertex -42.45 0 80
      vertex -42.45 3.14999 13.85
      vertex -42.45 3.14999 80
    endloop
  endfacet
  facet normal 1 0 0
    outer loop
      vertex -42.45 3.14999 13.85
      vertex -42.45 0 80
      vertex -42.45 0 13.85
    endloop
  endfacet
  facet normal -0 0 1
    outer loop
      vertex 37.55 3.14999 13.85
      vertex 42.45 0 13.85
      vertex 44.05 3.14999 13.85
    endloop
  endfacet
  facet normal 0 0 1
    outer loop
      vertex 42.45 0 13.85
      vertex 37.55 3.14999 13.85
      vertex 37.55 0 13.85
    endloop
  endfacet
  facet normal -0.891578 0.452867 0
    outer loop
      vertex 42.45 0 13.85
      vertex 44.05 3.14999 80
      vertex 44.05 3.14999 13.85
    endloop
  endfacet
  facet normal -0.891578 0.452867 0
    outer loop
      vertex 44.05 3.14999 80
      vertex 42.45 0 13.85
      vertex 42.45 0 80
    endloop
  endfacet
  facet normal 0 -1 0
    outer loop
      vertex 37.55 3.14999 13.85
      vertex 44.05 3.14999 80
      vertex 37.55 3.14999 80
    endloop
  endfacet
  facet normal 0 -1 -0
    outer loop
      vertex 44.05 3.14999 80
      vertex 37.55 3.14999 13.85
      vertex 44.05 3.14999 13.85
    endloop
  endfacet
  facet normal 1 -0 0
    outer loop
      vertex 37.55 0 80
      vertex 37.55 3.14999 13.85
      vertex 37.55 3.14999 80
    endloop
  endfacet
  facet normal 1 0 0
    outer loop
      vertex 37.55 3.14999 13.85
      vertex 37.55 0 80
      vertex 37.55 0 13.85
    endloop
  endfacet
  facet normal 1 0 0
    outer loop
      vertex 60.75 52.4 80
      vertex 60.75 47 71.6
      vertex 60.75 52.4 0
    endloop
  endfacet
  facet normal 1 0 0
    outer loop
      vertex 60.75 52.4 80
      vertex 60.75 6 71.6
      vertex 60.75 47 71.6
    endloop
  endfacet
  facet normal 1 0 0
    outer loop
      vertex 60.75 0 0
      vertex 60.75 6 71.6
      vertex 60.75 0 80
    endloop
  endfacet
  facet normal 1 -0 0
    outer loop
      vertex 60.75 0 80
      vertex 60.75 6 71.6
      vertex 60.75 52.4 80
    endloop
  endfacet
  facet normal 1 -0 0
    outer loop
      vertex 60.75 47 6
      vertex 60.75 52.4 0
      vertex 60.75 47 71.6
    endloop
  endfacet
  facet normal 1 -0 0
    outer loop
      vertex 60.75 6 6
      vertex 60.75 52.4 0
      vertex 60.75 47 6
    endloop
  endfacet
  facet normal 1 0 0
    outer loop
      vertex 60.75 6 6
      vertex 60.75 0 0
      vertex 60.75 52.4 0
    endloop
  endfacet
  facet normal 1 0 0
    outer loop
      vertex 60.75 6 71.6
      vertex 60.75 0 0
      vertex 60.75 6 6
    endloop
  endfacet
  facet normal 0 1 0
    outer loop
      vertex -50.35 52.4 76.6
      vertex -50.35 52.4 0
      vertex -51.35 52.4 76.6
    endloop
  endfacet
  facet normal 0 1 -0
    outer loop
      vertex -51.35 52.4 76.6
      vertex -60.75 52.4 80
      vertex -51.35 52.4 80
    endloop
  endfacet
  facet normal 0 1 0
    outer loop
      vertex -60.75 52.4 0
      vertex -51.35 52.4 76.6
      vertex -50.35 52.4 0
    endloop
  endfacet
  facet normal 0 1 0
    outer loop
      vertex -51.35 52.4 76.6
      vertex -60.75 52.4 0
      vertex -60.75 52.4 80
    endloop
  endfacet
  facet normal 0 1 0
    outer loop
      vertex 60.75 52.4 80
      vertex 51.35 52.4 76.6
      vertex 51.35 52.4 80
    endloop
  endfacet
  facet normal 0 1 -0
    outer loop
      vertex 60.75 52.4 0
      vertex 51.35 52.4 76.6
      vertex 60.75 52.4 80
    endloop
  endfacet
  facet normal 0 1 0
    outer loop
      vertex 50.35 52.4 0
      vertex 51.35 52.4 76.6
      vertex 60.75 52.4 0
    endloop
  endfacet
  facet normal 0 1 0
    outer loop
      vertex 51.35 52.4 76.6
      vertex 50.35 52.4 0
      vertex 50.35 52.4 76.6
    endloop
  endfacet
  facet normal 0 -1 0
    outer loop
      vertex -60.75 0 80
      vertex -42.45 0 13.85
      vertex -42.45 0 80
    endloop
  endfacet
  facet normal 0 -1 0
    outer loop
      vertex -42.45 0 13.85
      vertex -32 0 6
      vertex -37.55 0 13.85
    endloop
  endfacet
  facet normal 0 -1 0
    outer loop
      vertex -60.75 0 0
      vertex -14 0 6
      vertex -32 0 6
    endloop
  endfacet
  facet normal 0 -1 -0
    outer loop
      vertex -14 0 6
      vertex -60.75 0 0
      vertex 14 0 6
    endloop
  endfacet
  facet normal 0 -1 0
    outer loop
      vertex 60.75 0 0
      vertex 14 0 6
      vertex -60.75 0 0
    endloop
  endfacet
  facet normal 0 -1 -0
    outer loop
      vertex -42.45 0 13.85
      vertex -60.75 0 0
      vertex -32 0 6
    endloop
  endfacet
  facet normal 0 -1 0
    outer loop
      vertex -60.75 0 0
      vertex -42.45 0 13.85
      vertex -60.75 0 80
    endloop
  endfacet
  facet normal 0 -1 0
    outer loop
      vertex 42.45 0 13.85
      vertex 60.75 0 80
      vertex 42.45 0 80
    endloop
  endfacet
  facet normal 0 -1 0
    outer loop
      vertex 42.45 0 13.85
      vertex 60.75 0 0
      vertex 60.75 0 80
    endloop
  endfacet
  facet normal 0 -1 0
    outer loop
      vertex 32 0 6
      vertex 60.75 0 0
      vertex 42.45 0 13.85
    endloop
  endfacet
  facet normal 0 -1 0
    outer loop
      vertex 14 0 6
      vertex 60.75 0 0
      vertex 32 0 6
    endloop
  endfacet
  facet normal 0 -1 0
    outer loop
      vertex -14 0 71.6
      vertex -11.2 0 69.6
      vertex 14 0 71.6
    endloop
  endfacet
  facet normal 0 -1 0
    outer loop
      vertex -14 0 71.6
      vertex -11.2 0 20.4
      vertex -11.2 0 69.6
    endloop
  endfacet
  facet normal 0 -1 -0
    outer loop
      vertex -11.2 0 20.4
      vertex -14 0 6
      vertex 11.2 0 20.4
    endloop
  endfacet
  facet normal 0 -1 0
    outer loop
      vertex -14 0 6
      vertex -11.2 0 20.4
      vertex -14 0 71.6
    endloop
  endfacet
  facet normal 0 -1 0
    outer loop
      vertex -14 0 71.6
      vertex -37.55 0 80
      vertex -32 0 71.6
    endloop
  endfacet
  facet normal 0 -1 0
    outer loop
      vertex -37.55 0 13.85
      vertex -32 0 71.6
      vertex -37.55 0 80
    endloop
  endfacet
  facet normal 0 -1 -0
    outer loop
      vertex -32 0 71.6
      vertex -37.55 0 13.85
      vertex -32 0 6
    endloop
  endfacet
  facet normal 0 -1 0
    outer loop
      vertex -37.55 0 80
      vertex -14 0 71.6
      vertex 37.55 0 80
    endloop
  endfacet
  facet normal 0 -1 0
    outer loop
      vertex 14 0 71.6
      vertex 37.55 0 80
      vertex -14 0 71.6
    endloop
  endfacet
  facet normal 0 -1 0
    outer loop
      vertex 32 0 71.6
      vertex 37.55 0 80
      vertex 14 0 71.6
    endloop
  endfacet
  facet normal 0 -1 0
    outer loop
      vertex 32 0 71.6
      vertex 37.55 0 13.85
      vertex 37.55 0 80
    endloop
  endfacet
  facet normal 0 -1 -0
    outer loop
      vertex 37.55 0 13.85
      vertex 32 0 6
      vertex 42.45 0 13.85
    endloop
  endfacet
  facet normal 0 -1 0
    outer loop
      vertex 32 0 6
      vertex 37.55 0 13.85
      vertex 32 0 71.6
    endloop
  endfacet
  facet normal 0 -1 0
    outer loop
      vertex 11.2 0 69.6
      vertex 14 0 71.6
      vertex -11.2 0 69.6
    endloop
  endfacet
  facet normal 0 -1 0
    outer loop
      vertex 11.2 0 20.4
      vertex 14 0 71.6
      vertex 11.2 0 69.6
    endloop
  endfacet
  facet normal 0 -1 0
    outer loop
      vertex 11.2 0 20.4
      vertex 14 0 6
      vertex 14 0 71.6
    endloop
  endfacet
  facet normal 0 -1 0
    outer loop
      vertex 14 0 6
      vertex 11.2 0 20.4
      vertex -14 0 6
    endloop
  endfacet
  facet normal -1 0 0
    outer loop
      vertex -60.75 47 71.6
      vertex -60.75 52.4 0
      vertex -60.75 47 6
    endloop
  endfacet
  facet normal -1 0 0
    outer loop
      vertex -60.75 52.4 0
      vertex -60.75 6 6
      vertex -60.75 47 6
    endloop
  endfacet
  facet normal -1 -0 0
    outer loop
      vertex -60.75 6 6
      vertex -60.75 0 0
      vertex -60.75 6 71.6
    endloop
  endfacet
  facet normal -1 0 0
    outer loop
      vertex -60.75 0 0
      vertex -60.75 6 6
      vertex -60.75 52.4 0
    endloop
  endfacet
  facet normal -1 0 0
    outer loop
      vertex -60.75 52.4 0
      vertex -60.75 47 71.6
      vertex -60.75 52.4 80
    endloop
  endfacet
  facet normal -1 0 0
    outer loop
      vertex -60.75 6 71.6
      vertex -60.75 52.4 80
      vertex -60.75 47 71.6
    endloop
  endfacet
  facet normal -1 0 0
    outer loop
      vertex -60.75 6 71.6
      vertex -60.75 0 80
      vertex -60.75 52.4 80
    endloop
  endfacet
  facet normal -1 0 0
    outer loop
      vertex -60.75 0 80
      vertex -60.75 6 71.6
      vertex -60.75 0 0
    endloop
  endfacet
  facet normal 0 0 -1
    outer loop
      vertex 60.75 0 0
      vertex 58.35 5 0
      vertex 60.75 52.4 0
    endloop
  endfacet
  facet normal 0 0 -1
    outer loop
      vertex 60.75 0 0
      vertex -58.35 5 0
      vertex 58.35 5 0
    endloop
  endfacet
  facet normal 0 0 -1
    outer loop
      vertex -60.75 52.4 0
      vertex -58.35 5 0
      vertex -60.75 0 0
    endloop
  endfacet
  facet normal 0 0 -1
    outer loop
      vertex -60.75 0 0
      vertex -58.35 5 0
      vertex 60.75 0 0
    endloop
  endfacet
  facet normal 0 0 -1
    outer loop
      vertex 58.35 50 0
      vertex 60.75 52.4 0
      vertex 58.35 5 0
    endloop
  endfacet
  facet normal 0 0 -1
    outer loop
      vertex 50.35 52.4 0
      vertex 58.35 50 0
      vertex 50.35 50 0
    endloop
  endfacet
  facet normal 0 0 -1
    outer loop
      vertex 58.35 50 0
      vertex 50.35 52.4 0
      vertex 60.75 52.4 0
    endloop
  endfacet
  facet normal 0 0 -1
    outer loop
      vertex -58.35 50 0
      vertex -50.35 52.4 0
      vertex -50.35 50 0
    endloop
  endfacet
  facet normal 0 0 -1
    outer loop
      vertex -58.35 50 0
      vertex -60.75 52.4 0
      vertex -50.35 52.4 0
    endloop
  endfacet
  facet normal 0 0 -1
    outer loop
      vertex -58.35 5 0
      vertex -60.75 52.4 0
      vertex -58.35 50 0
    endloop
  endfacet
  facet normal 0 0 1
    outer loop
      vertex -51.35 52.4 80
      vertex -60.75 52.4 80
      vertex -51.35 5 80
    endloop
  endfacet
  facet normal 0 0 1
    outer loop
      vertex 51.35 5 80
      vertex 37.55 3.14999 80
      vertex 44.05 3.14999 80
    endloop
  endfacet
  facet normal 0 0 1
    outer loop
      vertex 37.55 3.14999 80
      vertex -35.95 3.14999 80
      vertex 37.55 0 80
    endloop
  endfacet
  facet normal 0 0 1
    outer loop
      vertex 51.35 5 80
      vertex -35.95 3.14999 80
      vertex 37.55 3.14999 80
    endloop
  endfacet
  facet normal -0 0 1
    outer loop
      vertex -51.35 5 80
      vertex -35.95 3.14999 80
      vertex 51.35 5 80
    endloop
  endfacet
  facet normal 0 0 1
    outer loop
      vertex -35.95 3.14999 80
      vertex -51.35 5 80
      vertex -42.45 3.14999 80
    endloop
  endfacet
  facet normal 0 0 1
    outer loop
      vertex -51.35 5 80
      vertex -42.45 0 80
      vertex -42.45 3.14999 80
    endloop
  endfacet
  facet normal 0 0 1
    outer loop
      vertex -51.35 5 80
      vertex -60.75 0 80
      vertex -42.45 0 80
    endloop
  endfacet
  facet normal 0 0 1
    outer loop
      vertex -60.75 0 80
      vertex -51.35 5 80
      vertex -60.75 52.4 80
    endloop
  endfacet
  facet normal 0 0 1
    outer loop
      vertex 51.35 5 80
      vertex 60.75 52.4 80
      vertex 51.35 52.4 80
    endloop
  endfacet
  facet normal 0 0 1
    outer loop
      vertex 60.75 52.4 80
      vertex 51.35 5 80
      vertex 60.75 0 80
    endloop
  endfacet
  facet normal 0 0 1
    outer loop
      vertex 42.45 0 80
      vertex 51.35 5 80
      vertex 44.05 3.14999 80
    endloop
  endfacet
  facet normal 0 0 1
    outer loop
      vertex 51.35 5 80
      vertex 42.45 0 80
      vertex 60.75 0 80
    endloop
  endfacet
  facet normal 0 0 1
    outer loop
      vertex 37.55 0 80
      vertex -35.95 3.14999 80
      vertex -37.55 0 80
    endloop
  endfacet
  facet normal -1 0 0
    outer loop
      vertex 58.35 50 0
      vertex 58.35 47 6
      vertex 58.35 50 77.6
    endloop
  endfacet
  facet normal -1 0 0
    outer loop
      vertex 58.35 5 0
      vertex 58.35 47 6
      vertex 58.35 50 0
    endloop
  endfacet
  facet normal -1 -0 0
    outer loop
      vertex 58.35 6 6
      vertex 58.35 5 0
      vertex 58.35 6 71.6
    endloop
  endfacet
  facet normal -1 -0 0
    outer loop
      vertex 58.35 47 6
      vertex 58.35 5 0
      vertex 58.35 6 6
    endloop
  endfacet
  facet normal -1 0 0
    outer loop
      vertex 58.35 47 71.6
      vertex 58.35 50 77.6
      vertex 58.35 47 6
    endloop
  endfacet
  facet normal -1 0 0
    outer loop
      vertex 58.35 5 77.6
      vertex 58.35 47 71.6
      vertex 58.35 6 71.6
    endloop
  endfacet
  facet normal -1 0 0
    outer loop
      vertex 58.35 47 71.6
      vertex 58.35 5 77.6
      vertex 58.35 50 77.6
    endloop
  endfacet
  facet normal -1 0 0
    outer loop
      vertex 58.35 5 77.6
      vertex 58.35 6 71.6
      vertex 58.35 5 0
    endloop
  endfacet
  facet normal 0 -1 0
    outer loop
      vertex -58.35 50 77.6
      vertex -51.35 50 76.6
      vertex -51.35 50 77.6
    endloop
  endfacet
  facet normal 0 -1 0
    outer loop
      vertex -58.35 50 0
      vertex -51.35 50 76.6
      vertex -58.35 50 77.6
    endloop
  endfacet
  facet normal 0 -1 0
    outer loop
      vertex -50.35 50 0
      vertex -51.35 50 76.6
      vertex -58.35 50 0
    endloop
  endfacet
  facet normal 0 -1 0
    outer loop
      vertex -51.35 50 76.6
      vertex -50.35 50 0
      vertex -50.35 50 76.6
    endloop
  endfacet
  facet normal 0 -1 0
    outer loop
      vertex 50.35 50 76.6
      vertex 50.35 50 0
      vertex 51.35 50 76.6
    endloop
  endfacet
  facet normal 0 -1 0
    outer loop
      vertex 51.35 50 76.6
      vertex 58.35 50 77.6
      vertex 51.35 50 77.6
    endloop
  endfacet
  facet normal 0 -1 0
    outer loop
      vertex 58.35 50 0
      vertex 51.35 50 76.6
      vertex 50.35 50 0
    endloop
  endfacet
  facet normal 0 -1 0
    outer loop
      vertex 51.35 50 76.6
      vertex 58.35 50 0
      vertex 58.35 50 77.6
    endloop
  endfacet
  facet normal 0 1 0
    outer loop
      vertex 10 5 69.6
      vertex 8 5 33.6
      vertex -10 5 69.6
    endloop
  endfacet
  facet normal 0 1 -0
    outer loop
      vertex 10 5 21.6
      vertex 8 5 33.6
      vertex 10 5 69.6
    endloop
  endfacet
  facet normal 0 1 0
    outer loop
      vertex 8 5 25.6
      vertex 10 5 21.6
      vertex -8 5 25.6
    endloop
  endfacet
  facet normal 0 1 0
    outer loop
      vertex 8 5 33.6
      vertex 10 5 21.6
      vertex 8 5 25.6
    endloop
  endfacet
  facet normal 0 1 0
    outer loop
      vertex 10 5 69.6
      vertex 14 5 71.6
      vertex 11.2 5 69.6
    endloop
  endfacet
  facet normal 0 1 0
    outer loop
      vertex 14 5 71.6
      vertex 11.2 5 20.4
      vertex 11.2 5 69.6
    endloop
  endfacet
  facet normal 0 1 0
    outer loop
      vertex 11.2 5 20.4
      vertex 14 5 6
      vertex -11.2 5 20.4
    endloop
  endfacet
  facet normal 0 1 -0
    outer loop
      vertex 14 5 6
      vertex 11.2 5 20.4
      vertex 14 5 71.6
    endloop
  endfacet
  facet normal 0 1 -0
    outer loop
      vertex 58.35 5 0
      vertex 51.35 5 77.6
      vertex 58.35 5 77.6
    endloop
  endfacet
  facet normal 0 1 0
    outer loop
      vertex 51.35 5 77.6
      vertex 14 5 71.6
      vertex -51.35 5 77.6
    endloop
  endfacet
  facet normal 0 1 0
    outer loop
      vertex 51.35 5 77.6
      vertex 32 5 71.6
      vertex 14 5 71.6
    endloop
  endfacet
  facet normal 0 1 0
    outer loop
      vertex 51.35 5 77.6
      vertex 32 5 6
      vertex 32 5 71.6
    endloop
  endfacet
  facet normal 0 1 0
    outer loop
      vertex 58.35 5 0
      vertex 14 5 6
      vertex 32 5 6
    endloop
  endfacet
  facet normal 0 1 0
    outer loop
      vertex 14 5 6
      vertex 58.35 5 0
      vertex -14 5 6
    endloop
  endfacet
  facet normal 0 1 0
    outer loop
      vertex -58.35 5 0
      vertex -14 5 6
      vertex 58.35 5 0
    endloop
  endfacet
  facet normal 0 1 0
    outer loop
      vertex 51.35 5 77.6
      vertex 58.35 5 0
      vertex 32 5 6
    endloop
  endfacet
  facet normal 0 1 -0
    outer loop
      vertex 51.35 5 77.6
      vertex -51.35 5 80
      vertex 51.35 5 80
    endloop
  endfacet
  facet normal 0 1 0
    outer loop
      vertex -51.35 5 80
      vertex 51.35 5 77.6
      vertex -51.35 5 77.6
    endloop
  endfacet
  facet normal 0 1 -0
    outer loop
      vertex -14 5 71.6
      vertex -51.35 5 77.6
      vertex 14 5 71.6
    endloop
  endfacet
  facet normal 0 1 -0
    outer loop
      vertex -32 5 71.6
      vertex -51.35 5 77.6
      vertex -14 5 71.6
    endloop
  endfacet
  facet normal 0 1 -0
    outer loop
      vertex -32 5 6
      vertex -51.35 5 77.6
      vertex -32 5 71.6
    endloop
  endfacet
  facet normal 0 1 0
    outer loop
      vertex -58.35 5 0
      vertex -51.35 5 77.6
      vertex -32 5 6
    endloop
  endfacet
  facet normal 0 1 0
    outer loop
      vertex -51.35 5 77.6
      vertex -58.35 5 0
      vertex -58.35 5 77.6
    endloop
  endfacet
  facet normal 0 1 0
    outer loop
      vertex -14 5 6
      vertex -58.35 5 0
      vertex -32 5 6
    endloop
  endfacet
  facet normal 0 1 0
    outer loop
      vertex 14 5 71.6
      vertex 10 5 69.6
      vertex -14 5 71.6
    endloop
  endfacet
  facet normal 0 1 -0
    outer loop
      vertex -10 5 69.6
      vertex -14 5 71.6
      vertex 10 5 69.6
    endloop
  endfacet
  facet normal 0 1 -0
    outer loop
      vertex -11.2 5 69.6
      vertex -14 5 71.6
      vertex -10 5 69.6
    endloop
  endfacet
  facet normal 0 1 -0
    outer loop
      vertex -11.2 5 20.4
      vertex -14 5 71.6
      vertex -11.2 5 69.6
    endloop
  endfacet
  facet normal 0 1 0
    outer loop
      vertex -11.2 5 20.4
      vertex -14 5 6
      vertex -14 5 71.6
    endloop
  endfacet
  facet normal 0 1 0
    outer loop
      vertex -14 5 6
      vertex -11.2 5 20.4
      vertex 14 5 6
    endloop
  endfacet
  facet normal 0 1 -0
    outer loop
      vertex -8 5 33.6
      vertex -10 5 69.6
      vertex 8 5 33.6
    endloop
  endfacet
  facet normal 0 1 0
    outer loop
      vertex -10 5 21.6
      vertex -8 5 33.6
      vertex -8 5 25.6
    endloop
  endfacet
  facet normal 0 1 0
    outer loop
      vertex -8 5 33.6
      vertex -10 5 21.6
      vertex -10 5 69.6
    endloop
  endfacet
  facet normal 0 1 0
    outer loop
      vertex -10 5 21.6
      vertex -8 5 25.6
      vertex 10 5 21.6
    endloop
  endfacet
  facet normal 1 0 0
    outer loop
      vertex -58.35 50 77.6
      vertex -58.35 47 71.6
      vertex -58.35 50 0
    endloop
  endfacet
  facet normal 1 -0 0
    outer loop
      vertex -58.35 5 77.6
      vertex -58.35 47 71.6
      vertex -58.35 50 77.6
    endloop
  endfacet
  facet normal 1 0 0
    outer loop
      vertex -58.35 6 71.6
      vertex -58.35 5 77.6
      vertex -58.35 6 6
    endloop
  endfacet
  facet normal 1 0 0
    outer loop
      vertex -58.35 47 71.6
      vertex -58.35 5 77.6
      vertex -58.35 6 71.6
    endloop
  endfacet
  facet normal 1 -0 0
    outer loop
      vertex -58.35 47 6
      vertex -58.35 50 0
      vertex -58.35 47 71.6
    endloop
  endfacet
  facet normal 1 0 0
    outer loop
      vertex -58.35 5 0
      vertex -58.35 47 6
      vertex -58.35 6 6
    endloop
  endfacet
  facet normal 1 0 0
    outer loop
      vertex -58.35 47 6
      vertex -58.35 5 0
      vertex -58.35 50 0
    endloop
  endfacet
  facet normal 1 0 0
    outer loop
      vertex -58.35 5 0
      vertex -58.35 6 6
      vertex -58.35 5 77.6
    endloop
  endfacet
  facet normal 0 0 -1
    outer loop
      vertex -58.35 5 77.6
      vertex -51.35 50 77.6
      vertex -51.35 5 77.6
    endloop
  endfacet
  facet normal -0 0 -1
    outer loop
      vertex -51.35 50 77.6
      vertex -58.35 5 77.6
      vertex -58.35 50 77.6
    endloop
  endfacet
  facet normal 0 0 -1
    outer loop
      vertex 51.35 5 77.6
      vertex 58.35 50 77.6
      vertex 58.35 5 77.6
    endloop
  endfacet
  facet normal -0 0 -1
    outer loop
      vertex 58.35 50 77.6
      vertex 51.35 5 77.6
      vertex 51.35 50 77.6
    endloop
  endfacet
  facet normal -1 0 0
    outer loop
      vertex 50.35 50 0
      vertex 50.35 52.4 76.6
      vertex 50.35 52.4 0
    endloop
  endfacet
  facet normal -1 -0 0
    outer loop
      vertex 50.35 52.4 76.6
      vertex 50.35 50 0
      vertex 50.35 50 76.6
    endloop
  endfacet
  facet normal 1 -0 0
    outer loop
      vertex -50.35 50 76.6
      vertex -50.35 52.4 0
      vertex -50.35 52.4 76.6
    endloop
  endfacet
  facet normal 1 0 0
    outer loop
      vertex -50.35 52.4 0
      vertex -50.35 50 76.6
      vertex -50.35 50 0
    endloop
  endfacet
  facet normal -1 0 0
    outer loop
      vertex 51.35 50 77.6
      vertex 51.35 52.4 76.6
      vertex 51.35 50 76.6
    endloop
  endfacet
  facet normal -1 0 0
    outer loop
      vertex 51.35 52.4 76.6
      vertex 51.35 50 77.6
      vertex 51.35 52.4 80
    endloop
  endfacet
  facet normal -1 0 0
    outer loop
      vertex 51.35 5 80
      vertex 51.35 50 77.6
      vertex 51.35 5 77.6
    endloop
  endfacet
  facet normal -1 0 0
    outer loop
      vertex 51.35 50 77.6
      vertex 51.35 5 80
      vertex 51.35 52.4 80
    endloop
  endfacet
  facet normal 1 0 0
    outer loop
      vertex -51.35 52.4 80
      vertex -51.35 50 77.6
      vertex -51.35 52.4 76.6
    endloop
  endfacet
  facet normal 1 -0 0
    outer loop
      vertex -51.35 5 80
      vertex -51.35 50 77.6
      vertex -51.35 52.4 80
    endloop
  endfacet
  facet normal 1 0 0
    outer loop
      vertex -51.35 50 77.6
      vertex -51.35 5 80
      vertex -51.35 5 77.6
    endloop
  endfacet
  facet normal 1 0 0
    outer loop
      vertex -51.35 52.4 76.6
      vertex -51.35 50 77.6
      vertex -51.35 50 76.6
    endloop
  endfacet
  facet normal -0 0 1
    outer loop
      vertex -51.35 52.4 76.6
      vertex -50.35 50 76.6
      vertex -50.35 52.4 76.6
    endloop
  endfacet
  facet normal 0 0 1
    outer loop
      vertex -50.35 50 76.6
      vertex -51.35 52.4 76.6
      vertex -51.35 50 76.6
    endloop
  endfacet
  facet normal -0 0 1
    outer loop
      vertex 50.35 52.4 76.6
      vertex 51.35 50 76.6
      vertex 51.35 52.4 76.6
    endloop
  endfacet
  facet normal 0 0 1
    outer loop
      vertex 51.35 50 76.6
      vertex 50.35 52.4 76.6
      vertex 50.35 50 76.6
    endloop
  endfacet
  facet normal -1 0 0
    outer loop
      vertex -10 3 21.6
      vertex -10 5 69.6
      vertex -10 5 21.6
    endloop
  endfacet
  facet normal -1 -0 0
    outer loop
      vertex -10 5 69.6
      vertex -10 3 21.6
      vertex -10 3 69.6
    endloop
  endfacet
  facet normal 1 -0 0
    outer loop
      vertex -11.2 0 69.6
      vertex -11.2 5 20.4
      vertex -11.2 5 69.6
    endloop
  endfacet
  facet normal 1 0 0
    outer loop
      vertex -11.2 5 20.4
      vertex -11.2 0 69.6
      vertex -11.2 0 20.4
    endloop
  endfacet
  facet normal -0 0 1
    outer loop
      vertex -11.2 5 20.4
      vertex 11.2 0 20.4
      vertex 11.2 5 20.4
    endloop
  endfacet
  facet normal 0 0 1
    outer loop
      vertex 11.2 0 20.4
      vertex -11.2 5 20.4
      vertex -11.2 0 20.4
    endloop
  endfacet
  facet normal 0 0 -1
    outer loop
      vertex 11.2 0 69.6
      vertex 10 3 69.6
      vertex 11.2 5 69.6
    endloop
  endfacet
  facet normal 0 0 -1
    outer loop
      vertex 11.2 0 69.6
      vertex -10 3 69.6
      vertex 10 3 69.6
    endloop
  endfacet
  facet normal 0 0 -1
    outer loop
      vertex -11.2 0 69.6
      vertex -10 3 69.6
      vertex 11.2 0 69.6
    endloop
  endfacet
  facet normal 0 0 -1
    outer loop
      vertex -11.2 5 69.6
      vertex -10 3 69.6
      vertex -11.2 0 69.6
    endloop
  endfacet
  facet normal 0 0 -1
    outer loop
      vertex -10 3 69.6
      vertex -11.2 5 69.6
      vertex -10 5 69.6
    endloop
  endfacet
  facet normal -0 0 -1
    outer loop
      vertex 11.2 5 69.6
      vertex 10 3 69.6
      vertex 10 5 69.6
    endloop
  endfacet
  facet normal -1 0 0
    outer loop
      vertex 11.2 0 20.4
      vertex 11.2 5 69.6
      vertex 11.2 5 20.4
    endloop
  endfacet
  facet normal -1 -0 0
    outer loop
      vertex 11.2 5 69.6
      vertex 11.2 0 20.4
      vertex 11.2 0 69.6
    endloop
  endfacet
  facet normal 1 -0 0
    outer loop
      vertex 10 3 69.6
      vertex 10 5 21.6
      vertex 10 5 69.6
    endloop
  endfacet
  facet normal 1 0 0
    outer loop
      vertex 10 5 21.6
      vertex 10 3 69.6
      vertex 10 3 21.6
    endloop
  endfacet
  facet normal 0 0 -1
    outer loop
      vertex -10 3 21.6
      vertex 10 5 21.6
      vertex 10 3 21.6
    endloop
  endfacet
  facet normal -0 0 -1
    outer loop
      vertex 10 5 21.6
      vertex -10 3 21.6
      vertex -10 5 21.6
    endloop
  endfacet
  facet normal 0 -1 0
    outer loop
      vertex -10 3 21.6
      vertex 10 3 69.6
      vertex -10 3 69.6
    endloop
  endfacet
  facet normal 0 -1 -0
    outer loop
      vertex 10 3 69.6
      vertex -10 3 21.6
      vertex 10 3 21.6
    endloop
  endfacet
  facet normal 0 0.919145 0.393919
    outer loop
      vertex 8 6.5 30.1
      vertex -8 5 33.6
      vertex 8 5 33.6
    endloop
  endfacet
  facet normal 0 0.919145 0.393919
    outer loop
      vertex -8 5 33.6
      vertex 8 6.5 30.1
      vertex -8 6.5 30.1
    endloop
  endfacet
  facet normal 0 1 -0
    outer loop
      vertex 8 6.5 29.1
      vertex -8 6.5 30.1
      vertex 8 6.5 30.1
    endloop
  endfacet
  facet normal 0 1 0
    outer loop
      vertex -8 6.5 30.1
      vertex 8 6.5 29.1
      vertex -8 6.5 29.1
    endloop
  endfacet
  facet normal 0 0.919145 -0.393919
    outer loop
      vertex 8 5 25.6
      vertex -8 6.5 29.1
      vertex 8 6.5 29.1
    endloop
  endfacet
  facet normal 0 0.919145 -0.393919
    outer loop
      vertex -8 6.5 29.1
      vertex 8 5 25.6
      vertex -8 5 25.6
    endloop
  endfacet
  facet normal -1 0 0
    outer loop
      vertex -8 5 25.6
      vertex -8 6.5 30.1
      vertex -8 6.5 29.1
    endloop
  endfacet
  facet normal -1 -0 0
    outer loop
      vertex -8 6.5 30.1
      vertex -8 5 25.6
      vertex -8 5 33.6
    endloop
  endfacet
  facet normal 1 0 0
    outer loop
      vertex 8 5 33.6
      vertex 8 6.5 29.1
      vertex 8 6.5 30.1
    endloop
  endfacet
  facet normal 1 0 0
    outer loop
      vertex 8 6.5 29.1
      vertex 8 5 33.6
      vertex 8 5 25.6
    endloop
  endfacet
endsolid OpenSCAD_Model
