solid OpenSCAD_Model
  facet normal -1 0 0
    outer loop
      vertex -12 3 19.6
      vertex -12 5 63.6
      vertex -12 5 19.6
    endloop
  endfacet
  facet normal -1 -0 0
    outer loop
      vertex -12 5 63.6
      vertex -12 3 19.6
      vertex -12 3 63.6
    endloop
  endfacet
  facet normal 1 -0 0
    outer loop
      vertex -13.2 0 63.6
      vertex -13.2 5 18.4
      vertex -13.2 5 63.6
    endloop
  endfacet
  facet normal 1 0 0
    outer loop
      vertex -13.2 5 18.4
      vertex -13.2 0 63.6
      vertex -13.2 0 18.4
    endloop
  endfacet
  facet normal -0 0 1
    outer loop
      vertex -13.2 5 18.4
      vertex 13.2 0 18.4
      vertex 13.2 5 18.4
    endloop
  endfacet
  facet normal 0 0 1
    outer loop
      vertex 13.2 0 18.4
      vertex -13.2 5 18.4
      vertex -13.2 0 18.4
    endloop
  endfacet
  facet normal 0 0 -1
    outer loop
      vertex 13.2 0 63.6
      vertex 12 3 63.6
      vertex 13.2 5 63.6
    endloop
  endfacet
  facet normal 0 0 -1
    outer loop
      vertex 13.2 0 63.6
      vertex -12 3 63.6
      vertex 12 3 63.6
    endloop
  endfacet
  facet normal 0 0 -1
    outer loop
      vertex -13.2 0 63.6
      vertex -12 3 63.6
      vertex 13.2 0 63.6
    endloop
  endfacet
  facet normal 0 0 -1
    outer loop
      vertex -13.2 5 63.6
      vertex -12 3 63.6
      vertex -13.2 0 63.6
    endloop
  endfacet
  facet normal 0 0 -1
    outer loop
      vertex -12 3 63.6
      vertex -13.2 5 63.6
      vertex -12 5 63.6
    endloop
  endfacet
  facet normal -0 0 -1
    outer loop
      vertex 13.2 5 63.6
      vertex 12 3 63.6
      vertex 12 5 63.6
    endloop
  endfacet
  facet normal -1 0 0
    outer loop
      vertex 13.2 0 18.4
      vertex 13.2 5 63.6
      vertex 13.2 5 18.4
    endloop
  endfacet
  facet normal -1 -0 0
    outer loop
      vertex 13.2 5 63.6
      vertex 13.2 0 18.4
      vertex 13.2 0 63.6
    endloop
  endfacet
  facet normal 1 -0 0
    outer loop
      vertex 12 3 63.6
      vertex 12 5 19.6
      vertex 12 5 63.6
    endloop
  endfacet
  facet normal 1 0 0
    outer loop
      vertex 12 5 19.6
      vertex 12 3 63.6
      vertex 12 3 19.6
    endloop
  endfacet
  facet normal 0 0 -1
    outer loop
      vertex -12 3 19.6
      vertex 12 5 19.6
      vertex 12 3 19.6
    endloop
  endfacet
  facet normal -0 0 -1
    outer loop
      vertex 12 5 19.6
      vertex -12 3 19.6
      vertex -12 5 19.6
    endloop
  endfacet
  facet normal -1 0 0
    outer loop
      vertex -12 21.6 19.6
      vertex -12 24 63.6
      vertex -12 24 19.6
    endloop
  endfacet
  facet normal -1 -0 0
    outer loop
      vertex -12 24 63.6
      vertex -12 21.6 19.6
      vertex -12 21.6 63.6
    endloop
  endfacet
  facet normal 1 -0 0
    outer loop
      vertex -13.2 21.6 63.6
      vertex -13.2 24 18.4
      vertex -13.2 24 63.6
    endloop
  endfacet
  facet normal 1 0 0
    outer loop
      vertex -13.2 24 18.4
      vertex -13.2 21.6 63.6
      vertex -13.2 21.6 18.4
    endloop
  endfacet
  facet normal -0 0 1
    outer loop
      vertex -13.2 24 18.4
      vertex 13.2 21.6 18.4
      vertex 13.2 24 18.4
    endloop
  endfacet
  facet normal 0 0 1
    outer loop
      vertex 13.2 21.6 18.4
      vertex -13.2 24 18.4
      vertex -13.2 21.6 18.4
    endloop
  endfacet
  facet normal 0 0 -1
    outer loop
      vertex -13.2 21.6 63.6
      vertex -12 24 63.6
      vertex -12 21.6 63.6
    endloop
  endfacet
  facet normal -0 0 -1
    outer loop
      vertex -12 24 63.6
      vertex -13.2 21.6 63.6
      vertex -13.2 24 63.6
    endloop
  endfacet
  facet normal -1 0 0
    outer loop
      vertex 13.2 21.6 18.4
      vertex 13.2 24 63.6
      vertex 13.2 24 18.4
    endloop
  endfacet
  facet normal -1 -0 0
    outer loop
      vertex 13.2 24 63.6
      vertex 13.2 21.6 18.4
      vertex 13.2 21.6 63.6
    endloop
  endfacet
  facet normal 1 -0 0
    outer loop
      vertex 12 21.6 63.6
      vertex 12 24 19.6
      vertex 12 24 63.6
    endloop
  endfacet
  facet normal 1 0 0
    outer loop
      vertex 12 24 19.6
      vertex 12 21.6 63.6
      vertex 12 21.6 19.6
    endloop
  endfacet
  facet normal 0 0 -1
    outer loop
      vertex 12 21.6 63.6
      vertex 13.2 24 63.6
      vertex 13.2 21.6 63.6
    endloop
  endfacet
  facet normal -0 0 -1
    outer loop
      vertex 13.2 24 63.6
      vertex 12 21.6 63.6
      vertex 12 24 63.6
    endloop
  endfacet
  facet normal 0 0 -1
    outer loop
      vertex -12 21.6 19.6
      vertex 12 24 19.6
      vertex 12 21.6 19.6
    endloop
  endfacet
  facet normal -0 0 -1
    outer loop
      vertex 12 24 19.6
      vertex -12 21.6 19.6
      vertex -12 24 19.6
    endloop
  endfacet
  facet normal -0 0 1
    outer loop
      vertex -22.45 3.14999 9.85
      vertex -17.55 0 9.85
      vertex -15.95 3.14999 9.85
    endloop
  endfacet
  facet normal 0 0 1
    outer loop
      vertex -17.55 0 9.85
      vertex -22.45 3.14999 9.85
      vertex -22.45 0 9.85
    endloop
  endfacet
  facet normal -0.891578 0.452867 0
    outer loop
      vertex -17.55 0 9.85
      vertex -15.95 3.14999 72
      vertex -15.95 3.14999 9.85
    endloop
  endfacet
  facet normal -0.891578 0.452867 0
    outer loop
      vertex -15.95 3.14999 72
      vertex -17.55 0 9.85
      vertex -17.55 0 72
    endloop
  endfacet
  facet normal 0 -1 0
    outer loop
      vertex -22.45 3.14999 9.85
      vertex -15.95 3.14999 72
      vertex -22.45 3.14999 72
    endloop
  endfacet
  facet normal 0 -1 -0
    outer loop
      vertex -15.95 3.14999 72
      vertex -22.45 3.14999 9.85
      vertex -15.95 3.14999 9.85
    endloop
  endfacet
  facet normal 1 -0 0
    outer loop
      vertex -22.45 0 72
      vertex -22.45 3.14999 9.85
      vertex -22.45 3.14999 72
    endloop
  endfacet
  facet normal 1 0 0
    outer loop
      vertex -22.45 3.14999 9.85
      vertex -22.45 0 72
      vertex -22.45 0 9.85
    endloop
  endfacet
  facet normal -0 0 1
    outer loop
      vertex 17.55 3.14999 9.85
      vertex 22.45 0 9.85
      vertex 24.05 3.14999 9.85
    endloop
  endfacet
  facet normal 0 0 1
    outer loop
      vertex 22.45 0 9.85
      vertex 17.55 3.14999 9.85
      vertex 17.55 0 9.85
    endloop
  endfacet
  facet normal -0.891578 0.452867 0
    outer loop
      vertex 22.45 0 9.85
      vertex 24.05 3.14999 72
      vertex 24.05 3.14999 9.85
    endloop
  endfacet
  facet normal -0.891578 0.452867 0
    outer loop
      vertex 24.05 3.14999 72
      vertex 22.45 0 9.85
      vertex 22.45 0 72
    endloop
  endfacet
  facet normal 0 -1 0
    outer loop
      vertex 17.55 3.14999 9.85
      vertex 24.05 3.14999 72
      vertex 17.55 3.14999 72
    endloop
  endfacet
  facet normal 0 -1 -0
    outer loop
      vertex 24.05 3.14999 72
      vertex 17.55 3.14999 9.85
      vertex 24.05 3.14999 9.85
    endloop
  endfacet
  facet normal 1 -0 0
    outer loop
      vertex 17.55 0 72
      vertex 17.55 3.14999 9.85
      vertex 17.55 3.14999 72
    endloop
  endfacet
  facet normal 1 0 0
    outer loop
      vertex 17.55 3.14999 9.85
      vertex 17.55 0 72
      vertex 17.55 0 9.85
    endloop
  endfacet
  facet normal 1 -0 0
    outer loop
      vertex 43.9 0 72
      vertex 43.9 43 0
      vertex 43.9 43 72
    endloop
  endfacet
  facet normal 1 0 0
    outer loop
      vertex 43.9 43 0
      vertex 43.9 0 72
      vertex 43.9 0 0
    endloop
  endfacet
  facet normal 0 1 0
    outer loop
      vertex 43.9 43 72
      vertex 33.5 43 69.6
      vertex -43.9 43 72
    endloop
  endfacet
  facet normal 0 1 -0
    outer loop
      vertex 43.9 43 0
      vertex 33.5 43 69.6
      vertex 43.9 43 72
    endloop
  endfacet
  facet normal 0 1 0
    outer loop
      vertex 33.5 43 69.6
      vertex 43.9 43 0
      vertex 33.5 43 0
    endloop
  endfacet
  facet normal 0 1 -0
    outer loop
      vertex -33.5 43 69.6
      vertex -43.9 43 72
      vertex 33.5 43 69.6
    endloop
  endfacet
  facet normal 0 1 0
    outer loop
      vertex -43.9 43 0
      vertex -33.5 43 69.6
      vertex -33.5 43 0
    endloop
  endfacet
  facet normal 0 1 0
    outer loop
      vertex -33.5 43 69.6
      vertex -43.9 43 0
      vertex -43.9 43 72
    endloop
  endfacet
  facet normal 0 -1 0
    outer loop
      vertex -43.9 0 72
      vertex -22.45 0 9.85
      vertex -22.45 0 72
    endloop
  endfacet
  facet normal 0 -1 0
    outer loop
      vertex -43.9 0 0
      vertex -17.55 0 9.85
      vertex -22.45 0 9.85
    endloop
  endfacet
  facet normal 0 -1 -0
    outer loop
      vertex -17.55 0 9.85
      vertex -43.9 0 0
      vertex 17.55 0 9.85
    endloop
  endfacet
  facet normal 0 -1 0
    outer loop
      vertex 43.9 0 0
      vertex 17.55 0 9.85
      vertex -43.9 0 0
    endloop
  endfacet
  facet normal 0 -1 0
    outer loop
      vertex -43.9 0 0
      vertex -22.45 0 9.85
      vertex -43.9 0 72
    endloop
  endfacet
  facet normal 0 -1 0
    outer loop
      vertex 22.45 0 9.85
      vertex 43.9 0 72
      vertex 22.45 0 72
    endloop
  endfacet
  facet normal 0 -1 0
    outer loop
      vertex 22.45 0 9.85
      vertex 43.9 0 0
      vertex 43.9 0 72
    endloop
  endfacet
  facet normal 0 -1 0
    outer loop
      vertex 17.55 0 9.85
      vertex 43.9 0 0
      vertex 22.45 0 9.85
    endloop
  endfacet
  facet normal 0 -1 0
    outer loop
      vertex -17.55 0 72
      vertex -13.2 0 63.6
      vertex 17.55 0 72
    endloop
  endfacet
  facet normal 0 -1 0
    outer loop
      vertex -17.55 0 72
      vertex -13.2 0 18.4
      vertex -13.2 0 63.6
    endloop
  endfacet
  facet normal 0 -1 -0
    outer loop
      vertex -13.2 0 18.4
      vertex -17.55 0 9.85
      vertex 13.2 0 18.4
    endloop
  endfacet
  facet normal 0 -1 0
    outer loop
      vertex -17.55 0 9.85
      vertex -13.2 0 18.4
      vertex -17.55 0 72
    endloop
  endfacet
  facet normal 0 -1 0
    outer loop
      vertex 13.2 0 63.6
      vertex 17.55 0 72
      vertex -13.2 0 63.6
    endloop
  endfacet
  facet normal 0 -1 0
    outer loop
      vertex 13.2 0 18.4
      vertex 17.55 0 72
      vertex 13.2 0 63.6
    endloop
  endfacet
  facet normal 0 -1 0
    outer loop
      vertex 13.2 0 18.4
      vertex 17.55 0 9.85
      vertex 17.55 0 72
    endloop
  endfacet
  facet normal 0 -1 0
    outer loop
      vertex 17.55 0 9.85
      vertex 13.2 0 18.4
      vertex -17.55 0 9.85
    endloop
  endfacet
  facet normal -1 0 0
    outer loop
      vertex -43.9 0 0
      vertex -43.9 43 72
      vertex -43.9 43 0
    endloop
  endfacet
  facet normal -1 -0 0
    outer loop
      vertex -43.9 43 72
      vertex -43.9 0 0
      vertex -43.9 0 72
    endloop
  endfacet
  facet normal 0 0 -1
    outer loop
      vertex -41.5 21.6 0
      vertex 41.5 24 0
      vertex 41.5 21.6 0
    endloop
  endfacet
  facet normal -0 0 -1
    outer loop
      vertex 41.5 24 0
      vertex -41.5 21.6 0
      vertex -41.5 24 0
    endloop
  endfacet
  facet normal 0 0 -1
    outer loop
      vertex 41.5 21.6 0
      vertex 43.9 0 0
      vertex 41.5 5 0
    endloop
  endfacet
  facet normal 0 0 -1
    outer loop
      vertex 43.9 0 0
      vertex -41.5 5 0
      vertex 41.5 5 0
    endloop
  endfacet
  facet normal 0 0 -1
    outer loop
      vertex -43.9 0 0
      vertex -41.5 21.6 0
      vertex -41.5 5 0
    endloop
  endfacet
  facet normal 0 0 -1
    outer loop
      vertex -43.9 43 0
      vertex -41.5 21.6 0
      vertex -43.9 0 0
    endloop
  endfacet
  facet normal 0 0 -1
    outer loop
      vertex -41.5 21.6 0
      vertex -43.9 43 0
      vertex -41.5 24 0
    endloop
  endfacet
  facet normal 0 0 -1
    outer loop
      vertex -43.9 0 0
      vertex -41.5 5 0
      vertex 43.9 0 0
    endloop
  endfacet
  facet normal 0 0 -1
    outer loop
      vertex 43.9 0 0
      vertex 41.5 21.6 0
      vertex 43.9 43 0
    endloop
  endfacet
  facet normal 0 0 -1
    outer loop
      vertex 41.5 24 0
      vertex 43.9 43 0
      vertex 41.5 21.6 0
    endloop
  endfacet
  facet normal 0 0 -1
    outer loop
      vertex 41.5 40.6 0
      vertex 43.9 43 0
      vertex 41.5 24 0
    endloop
  endfacet
  facet normal 0 0 -1
    outer loop
      vertex 33.5 43 0
      vertex 41.5 40.6 0
      vertex 33.5 40.6 0
    endloop
  endfacet
  facet normal 0 0 -1
    outer loop
      vertex 41.5 40.6 0
      vertex 33.5 43 0
      vertex 43.9 43 0
    endloop
  endfacet
  facet normal 0 0 -1
    outer loop
      vertex -41.5 40.6 0
      vertex -33.5 43 0
      vertex -33.5 40.6 0
    endloop
  endfacet
  facet normal 0 0 -1
    outer loop
      vertex -41.5 40.6 0
      vertex -43.9 43 0
      vertex -33.5 43 0
    endloop
  endfacet
  facet normal 0 0 -1
    outer loop
      vertex -41.5 24 0
      vertex -43.9 43 0
      vertex -41.5 40.6 0
    endloop
  endfacet
  facet normal 0 0 1
    outer loop
      vertex 33.5 5 72
      vertex 17.55 3.14999 72
      vertex 24.05 3.14999 72
    endloop
  endfacet
  facet normal 0 0 1
    outer loop
      vertex 17.55 3.14999 72
      vertex -15.95 3.14999 72
      vertex 17.55 0 72
    endloop
  endfacet
  facet normal 0 0 1
    outer loop
      vertex 33.5 5 72
      vertex -15.95 3.14999 72
      vertex 17.55 3.14999 72
    endloop
  endfacet
  facet normal -0 0 1
    outer loop
      vertex -33.5 5 72
      vertex -15.95 3.14999 72
      vertex 33.5 5 72
    endloop
  endfacet
  facet normal 0 0 1
    outer loop
      vertex -15.95 3.14999 72
      vertex -33.5 5 72
      vertex -22.45 3.14999 72
    endloop
  endfacet
  facet normal 0 0 1
    outer loop
      vertex -33.5 5 72
      vertex -22.45 0 72
      vertex -22.45 3.14999 72
    endloop
  endfacet
  facet normal 0 0 1
    outer loop
      vertex -33.5 5 72
      vertex -43.9 0 72
      vertex -22.45 0 72
    endloop
  endfacet
  facet normal 0 0 1
    outer loop
      vertex -43.9 0 72
      vertex -33.5 5 72
      vertex -43.9 43 72
    endloop
  endfacet
  facet normal 0 0 1
    outer loop
      vertex 33.5 5 72
      vertex 43.9 43 72
      vertex 33.5 40.6 72
    endloop
  endfacet
  facet normal 0 0 1
    outer loop
      vertex 43.9 43 72
      vertex -33.5 40.6 72
      vertex 33.5 40.6 72
    endloop
  endfacet
  facet normal 0 0 1
    outer loop
      vertex -33.5 40.6 72
      vertex -43.9 43 72
      vertex -33.5 5 72
    endloop
  endfacet
  facet normal -0 0 1
    outer loop
      vertex -43.9 43 72
      vertex -33.5 40.6 72
      vertex 43.9 43 72
    endloop
  endfacet
  facet normal 0 0 1
    outer loop
      vertex 43.9 43 72
      vertex 33.5 5 72
      vertex 43.9 0 72
    endloop
  endfacet
  facet normal 0 0 1
    outer loop
      vertex 22.45 0 72
      vertex 33.5 5 72
      vertex 24.05 3.14999 72
    endloop
  endfacet
  facet normal 0 0 1
    outer loop
      vertex 33.5 5 72
      vertex 22.45 0 72
      vertex 43.9 0 72
    endloop
  endfacet
  facet normal 0 0 1
    outer loop
      vertex 17.55 0 72
      vertex -15.95 3.14999 72
      vertex -17.55 0 72
    endloop
  endfacet
  facet normal -1 0 0
    outer loop
      vertex 41.5 5 0
      vertex 41.5 21.6 69.6
      vertex 41.5 21.6 0
    endloop
  endfacet
  facet normal -1 -0 0
    outer loop
      vertex 41.5 21.6 69.6
      vertex 41.5 5 0
      vertex 41.5 5 69.6
    endloop
  endfacet
  facet normal 0 -1 0
    outer loop
      vertex -12 21.6 19.6
      vertex 12 21.6 63.6
      vertex -12 21.6 63.6
    endloop
  endfacet
  facet normal 0 -1 -0
    outer loop
      vertex 12 21.6 63.6
      vertex -12 21.6 19.6
      vertex 12 21.6 19.6
    endloop
  endfacet
  facet normal 0 -1 0
    outer loop
      vertex -41.5 21.6 69.6
      vertex -33.5 21.6 68.6
      vertex -33.5 21.6 69.6
    endloop
  endfacet
  facet normal 0 -1 0
    outer loop
      vertex -12 21.6 63.6
      vertex -33.5 21.6 68.6
      vertex -13.2 21.6 63.6
    endloop
  endfacet
  facet normal 0 -1 0
    outer loop
      vertex -13.2 21.6 18.4
      vertex -33.5 21.6 68.6
      vertex -41.5 21.6 69.6
    endloop
  endfacet
  facet normal 0 -1 0
    outer loop
      vertex -33.5 21.6 68.6
      vertex -13.2 21.6 18.4
      vertex -13.2 21.6 63.6
    endloop
  endfacet
  facet normal 0 -1 -0
    outer loop
      vertex -13.2 21.6 18.4
      vertex -41.5 21.6 0
      vertex 13.2 21.6 18.4
    endloop
  endfacet
  facet normal 0 -1 0
    outer loop
      vertex -41.5 21.6 0
      vertex -13.2 21.6 18.4
      vertex -41.5 21.6 69.6
    endloop
  endfacet
  facet normal 0 -1 0
    outer loop
      vertex 33.5 21.6 68.6
      vertex 41.5 21.6 69.6
      vertex 33.5 21.6 69.6
    endloop
  endfacet
  facet normal 0 -1 0
    outer loop
      vertex -33.5 21.6 68.6
      vertex -12 21.6 63.6
      vertex 33.5 21.6 68.6
    endloop
  endfacet
  facet normal 0 -1 0
    outer loop
      vertex 12 21.6 63.6
      vertex 33.5 21.6 68.6
      vertex -12 21.6 63.6
    endloop
  endfacet
  facet normal 0 -1 0
    outer loop
      vertex 13.2 21.6 63.6
      vertex 33.5 21.6 68.6
      vertex 12 21.6 63.6
    endloop
  endfacet
  facet normal 0 -1 0
    outer loop
      vertex 13.2 21.6 18.4
      vertex 33.5 21.6 68.6
      vertex 13.2 21.6 63.6
    endloop
  endfacet
  facet normal 0 -1 -0
    outer loop
      vertex 33.5 21.6 68.6
      vertex 13.2 21.6 18.4
      vertex 41.5 21.6 69.6
    endloop
  endfacet
  facet normal 0 -1 0
    outer loop
      vertex 13.2 21.6 18.4
      vertex 41.5 21.6 0
      vertex 41.5 21.6 69.6
    endloop
  endfacet
  facet normal 0 -1 0
    outer loop
      vertex 41.5 21.6 0
      vertex 13.2 21.6 18.4
      vertex -41.5 21.6 0
    endloop
  endfacet
  facet normal 0 1 0
    outer loop
      vertex 12 5 63.6
      vertex 10 5 31.6
      vertex -12 5 63.6
    endloop
  endfacet
  facet normal 0 1 -0
    outer loop
      vertex 12 5 19.6
      vertex 10 5 31.6
      vertex 12 5 63.6
    endloop
  endfacet
  facet normal 0 1 0
    outer loop
      vertex 10 5 23.6
      vertex 12 5 19.6
      vertex -10 5 23.6
    endloop
  endfacet
  facet normal 0 1 0
    outer loop
      vertex 10 5 31.6
      vertex 12 5 19.6
      vertex 10 5 23.6
    endloop
  endfacet
  facet normal 0 1 0
    outer loop
      vertex 13.2 5 18.4
      vertex 33.5 5 69.6
      vertex 41.5 5 69.6
    endloop
  endfacet
  facet normal 0 1 0
    outer loop
      vertex 33.5 5 69.6
      vertex 12 5 63.6
      vertex -33.5 5 69.6
    endloop
  endfacet
  facet normal 0 1 0
    outer loop
      vertex 33.5 5 69.6
      vertex 13.2 5 63.6
      vertex 12 5 63.6
    endloop
  endfacet
  facet normal 0 1 0
    outer loop
      vertex 33.5 5 69.6
      vertex 13.2 5 18.4
      vertex 13.2 5 63.6
    endloop
  endfacet
  facet normal 0 1 0
    outer loop
      vertex 13.2 5 18.4
      vertex 41.5 5 0
      vertex -13.2 5 18.4
    endloop
  endfacet
  facet normal 0 1 -0
    outer loop
      vertex 41.5 5 0
      vertex 13.2 5 18.4
      vertex 41.5 5 69.6
    endloop
  endfacet
  facet normal 0 1 -0
    outer loop
      vertex 33.5 5 69.6
      vertex -33.5 5 72
      vertex 33.5 5 72
    endloop
  endfacet
  facet normal 0 1 0
    outer loop
      vertex -33.5 5 72
      vertex 33.5 5 69.6
      vertex -33.5 5 69.6
    endloop
  endfacet
  facet normal 0 1 -0
    outer loop
      vertex -12 5 63.6
      vertex -33.5 5 69.6
      vertex 12 5 63.6
    endloop
  endfacet
  facet normal 0 1 -0
    outer loop
      vertex -13.2 5 63.6
      vertex -33.5 5 69.6
      vertex -12 5 63.6
    endloop
  endfacet
  facet normal 0 1 -0
    outer loop
      vertex -13.2 5 18.4
      vertex -33.5 5 69.6
      vertex -13.2 5 63.6
    endloop
  endfacet
  facet normal 0 1 0
    outer loop
      vertex -33.5 5 69.6
      vertex -13.2 5 18.4
      vertex -41.5 5 69.6
    endloop
  endfacet
  facet normal 0 1 0
    outer loop
      vertex -13.2 5 18.4
      vertex -41.5 5 0
      vertex -41.5 5 69.6
    endloop
  endfacet
  facet normal 0 1 0
    outer loop
      vertex -41.5 5 0
      vertex -13.2 5 18.4
      vertex 41.5 5 0
    endloop
  endfacet
  facet normal 0 1 -0
    outer loop
      vertex -10 5 31.6
      vertex -12 5 63.6
      vertex 10 5 31.6
    endloop
  endfacet
  facet normal 0 1 0
    outer loop
      vertex -12 5 19.6
      vertex -10 5 31.6
      vertex -10 5 23.6
    endloop
  endfacet
  facet normal 0 1 0
    outer loop
      vertex -10 5 31.6
      vertex -12 5 19.6
      vertex -12 5 63.6
    endloop
  endfacet
  facet normal 0 1 0
    outer loop
      vertex -12 5 19.6
      vertex -10 5 23.6
      vertex 12 5 19.6
    endloop
  endfacet
  facet normal 1 -0 0
    outer loop
      vertex -41.5 5 69.6
      vertex -41.5 21.6 0
      vertex -41.5 21.6 69.6
    endloop
  endfacet
  facet normal 1 0 0
    outer loop
      vertex -41.5 21.6 0
      vertex -41.5 5 69.6
      vertex -41.5 5 0
    endloop
  endfacet
  facet normal 0 0 -1
    outer loop
      vertex -41.5 5 69.6
      vertex -33.5 21.6 69.6
      vertex -33.5 5 69.6
    endloop
  endfacet
  facet normal -0 0 -1
    outer loop
      vertex -33.5 21.6 69.6
      vertex -41.5 5 69.6
      vertex -41.5 21.6 69.6
    endloop
  endfacet
  facet normal 0 0 -1
    outer loop
      vertex 33.5 5 69.6
      vertex 41.5 21.6 69.6
      vertex 41.5 5 69.6
    endloop
  endfacet
  facet normal -0 0 -1
    outer loop
      vertex 41.5 21.6 69.6
      vertex 33.5 5 69.6
      vertex 33.5 21.6 69.6
    endloop
  endfacet
  facet normal -1 0 0
    outer loop
      vertex 41.5 24 0
      vertex 41.5 40.6 69.6
      vertex 41.5 40.6 0
    endloop
  endfacet
  facet normal -1 -0 0
    outer loop
      vertex 41.5 40.6 69.6
      vertex 41.5 24 0
      vertex 41.5 24 69.6
    endloop
  endfacet
  facet normal 0 -1 0
    outer loop
      vertex -41.5 40.6 0
      vertex -33.5 40.6 69.6
      vertex -41.5 40.6 69.6
    endloop
  endfacet
  facet normal 0 -1 -0
    outer loop
      vertex -33.5 40.6 69.6
      vertex -41.5 40.6 0
      vertex -33.5 40.6 0
    endloop
  endfacet
  facet normal 0 -1 0
    outer loop
      vertex 33.5 40.6 0
      vertex 41.5 40.6 69.6
      vertex 33.5 40.6 69.6
    endloop
  endfacet
  facet normal 0 -1 -0
    outer loop
      vertex 41.5 40.6 69.6
      vertex 33.5 40.6 0
      vertex 41.5 40.6 0
    endloop
  endfacet
  facet normal 0 1 0
    outer loop
      vertex 12 24 63.6
      vertex 10 24 31.6
      vertex -12 24 63.6
    endloop
  endfacet
  facet normal 0 1 -0
    outer loop
      vertex 12 24 19.6
      vertex 10 24 31.6
      vertex 12 24 63.6
    endloop
  endfacet
  facet normal 0 1 0
    outer loop
      vertex 10 24 23.6
      vertex 12 24 19.6
      vertex -10 24 23.6
    endloop
  endfacet
  facet normal 0 1 0
    outer loop
      vertex 10 24 31.6
      vertex 12 24 19.6
      vertex 10 24 23.6
    endloop
  endfacet
  facet normal 0 1 0
    outer loop
      vertex 41.5 24 69.6
      vertex 33.5 24 68.6
      vertex 33.5 24 69.6
    endloop
  endfacet
  facet normal 0 1 0
    outer loop
      vertex 12 24 63.6
      vertex 33.5 24 68.6
      vertex 13.2 24 63.6
    endloop
  endfacet
  facet normal 0 1 0
    outer loop
      vertex 13.2 24 18.4
      vertex 33.5 24 68.6
      vertex 41.5 24 69.6
    endloop
  endfacet
  facet normal 0 1 0
    outer loop
      vertex 33.5 24 68.6
      vertex 13.2 24 18.4
      vertex 13.2 24 63.6
    endloop
  endfacet
  facet normal 0 1 0
    outer loop
      vertex 13.2 24 18.4
      vertex 41.5 24 0
      vertex -13.2 24 18.4
    endloop
  endfacet
  facet normal 0 1 -0
    outer loop
      vertex 41.5 24 0
      vertex 13.2 24 18.4
      vertex 41.5 24 69.6
    endloop
  endfacet
  facet normal 0 1 -0
    outer loop
      vertex -33.5 24 68.6
      vertex -41.5 24 69.6
      vertex -33.5 24 69.6
    endloop
  endfacet
  facet normal 0 1 0
    outer loop
      vertex 33.5 24 68.6
      vertex 12 24 63.6
      vertex -33.5 24 68.6
    endloop
  endfacet
  facet normal 0 1 -0
    outer loop
      vertex -12 24 63.6
      vertex -33.5 24 68.6
      vertex 12 24 63.6
    endloop
  endfacet
  facet normal 0 1 -0
    outer loop
      vertex -13.2 24 63.6
      vertex -33.5 24 68.6
      vertex -12 24 63.6
    endloop
  endfacet
  facet normal 0 1 -0
    outer loop
      vertex -13.2 24 18.4
      vertex -33.5 24 68.6
      vertex -13.2 24 63.6
    endloop
  endfacet
  facet normal 0 1 0
    outer loop
      vertex -33.5 24 68.6
      vertex -13.2 24 18.4
      vertex -41.5 24 69.6
    endloop
  endfacet
  facet normal 0 1 0
    outer loop
      vertex -13.2 24 18.4
      vertex -41.5 24 0
      vertex -41.5 24 69.6
    endloop
  endfacet
  facet normal 0 1 0
    outer loop
      vertex -41.5 24 0
      vertex -13.2 24 18.4
      vertex 41.5 24 0
    endloop
  endfacet
  facet normal 0 1 -0
    outer loop
      vertex -10 24 31.6
      vertex -12 24 63.6
      vertex 10 24 31.6
    endloop
  endfacet
  facet normal 0 1 0
    outer loop
      vertex -12 24 19.6
      vertex -10 24 31.6
      vertex -10 24 23.6
    endloop
  endfacet
  facet normal 0 1 0
    outer loop
      vertex -10 24 31.6
      vertex -12 24 19.6
      vertex -12 24 63.6
    endloop
  endfacet
  facet normal 0 1 0
    outer loop
      vertex -12 24 19.6
      vertex -10 24 23.6
      vertex 12 24 19.6
    endloop
  endfacet
  facet normal 1 -0 0
    outer loop
      vertex -41.5 24 69.6
      vertex -41.5 40.6 0
      vertex -41.5 40.6 69.6
    endloop
  endfacet
  facet normal 1 0 0
    outer loop
      vertex -41.5 40.6 0
      vertex -41.5 24 69.6
      vertex -41.5 24 0
    endloop
  endfacet
  facet normal 0 0 -1
    outer loop
      vertex -41.5 24 69.6
      vertex -33.5 40.6 69.6
      vertex -33.5 24 69.6
    endloop
  endfacet
  facet normal -0 0 -1
    outer loop
      vertex -33.5 40.6 69.6
      vertex -41.5 24 69.6
      vertex -41.5 40.6 69.6
    endloop
  endfacet
  facet normal 0 0 -1
    outer loop
      vertex 33.5 24 69.6
      vertex 41.5 40.6 69.6
      vertex 41.5 24 69.6
    endloop
  endfacet
  facet normal -0 0 -1
    outer loop
      vertex 41.5 40.6 69.6
      vertex 33.5 24 69.6
      vertex 33.5 40.6 69.6
    endloop
  endfacet
  facet normal 0 0 -1
    outer loop
      vertex -33.5 40.6 69.6
      vertex 33.5 43 69.6
      vertex 33.5 40.6 69.6
    endloop
  endfacet
  facet normal -0 0 -1
    outer loop
      vertex 33.5 43 69.6
      vertex -33.5 40.6 69.6
      vertex -33.5 43 69.6
    endloop
  endfacet
  facet normal -1 0 0
    outer loop
      vertex 33.5 40.6 0
      vertex 33.5 43 69.6
      vertex 33.5 43 0
    endloop
  endfacet
  facet normal -1 -0 0
    outer loop
      vertex 33.5 43 69.6
      vertex 33.5 40.6 0
      vertex 33.5 40.6 69.6
    endloop
  endfacet
  facet normal 1 -0 0
    outer loop
      vertex -33.5 40.6 69.6
      vertex -33.5 43 0
      vertex -33.5 43 69.6
    endloop
  endfacet
  facet normal 1 0 0
    outer loop
      vertex -33.5 43 0
      vertex -33.5 40.6 69.6
      vertex -33.5 40.6 0
    endloop
  endfacet
  facet normal -1 0 0
    outer loop
      vertex 33.5 24 68.6
      vertex 33.5 21.6 68.6
      vertex 33.5 24 69.6
    endloop
  endfacet
  facet normal -1 0 0
    outer loop
      vertex 33.5 24 69.6
      vertex 33.5 40.6 72
      vertex 33.5 40.6 69.6
    endloop
  endfacet
  facet normal -1 0 0
    outer loop
      vertex 33.5 21.6 69.6
      vertex 33.5 24 69.6
      vertex 33.5 21.6 68.6
    endloop
  endfacet
  facet normal -1 0 0
    outer loop
      vertex 33.5 21.6 69.6
      vertex 33.5 40.6 72
      vertex 33.5 24 69.6
    endloop
  endfacet
  facet normal -1 0 0
    outer loop
      vertex 33.5 5 72
      vertex 33.5 21.6 69.6
      vertex 33.5 5 69.6
    endloop
  endfacet
  facet normal -1 0 0
    outer loop
      vertex 33.5 21.6 69.6
      vertex 33.5 5 72
      vertex 33.5 40.6 72
    endloop
  endfacet
  facet normal 0 -1 0
    outer loop
      vertex -33.5 40.6 69.6
      vertex 33.5 40.6 72
      vertex -33.5 40.6 72
    endloop
  endfacet
  facet normal 0 -1 -0
    outer loop
      vertex 33.5 40.6 72
      vertex -33.5 40.6 69.6
      vertex 33.5 40.6 69.6
    endloop
  endfacet
  facet normal 1 0 0
    outer loop
      vertex -33.5 40.6 72
      vertex -33.5 24 69.6
      vertex -33.5 40.6 69.6
    endloop
  endfacet
  facet normal 1 0 0
    outer loop
      vertex -33.5 24 69.6
      vertex -33.5 21.6 69.6
      vertex -33.5 24 68.6
    endloop
  endfacet
  facet normal 1 0 0
    outer loop
      vertex -33.5 40.6 72
      vertex -33.5 21.6 69.6
      vertex -33.5 24 69.6
    endloop
  endfacet
  facet normal 1 -0 0
    outer loop
      vertex -33.5 5 72
      vertex -33.5 21.6 69.6
      vertex -33.5 40.6 72
    endloop
  endfacet
  facet normal 1 0 0
    outer loop
      vertex -33.5 21.6 69.6
      vertex -33.5 5 72
      vertex -33.5 5 69.6
    endloop
  endfacet
  facet normal 1 0 0
    outer loop
      vertex -33.5 24 68.6
      vertex -33.5 21.6 69.6
      vertex -33.5 21.6 68.6
    endloop
  endfacet
  facet normal -0 0 1
    outer loop
      vertex -33.5 24 68.6
      vertex 33.5 21.6 68.6
      vertex 33.5 24 68.6
    endloop
  endfacet
  facet normal 0 0 1
    outer loop
      vertex 33.5 21.6 68.6
      vertex -33.5 24 68.6
      vertex -33.5 21.6 68.6
    endloop
  endfacet
  facet normal 0 -1 0
    outer loop
      vertex -12 3 19.6
      vertex 12 3 63.6
      vertex -12 3 63.6
    endloop
  endfacet
  facet normal 0 -1 -0
    outer loop
      vertex 12 3 63.6
      vertex -12 3 19.6
      vertex 12 3 19.6
    endloop
  endfacet
  facet normal 0 0.868243 0.496139
    outer loop
      vertex 10 7 28.1
      vertex -10 5 31.6
      vertex 10 5 31.6
    endloop
  endfacet
  facet normal 0 0.868243 0.496139
    outer loop
      vertex -10 5 31.6
      vertex 10 7 28.1
      vertex -10 7 28.1
    endloop
  endfacet
  facet normal 0 1 -0
    outer loop
      vertex 10 7 27.1
      vertex -10 7 28.1
      vertex 10 7 28.1
    endloop
  endfacet
  facet normal 0 1 0
    outer loop
      vertex -10 7 28.1
      vertex 10 7 27.1
      vertex -10 7 27.1
    endloop
  endfacet
  facet normal 0 0.868243 -0.496139
    outer loop
      vertex 10 5 23.6
      vertex -10 7 27.1
      vertex 10 7 27.1
    endloop
  endfacet
  facet normal 0 0.868243 -0.496139
    outer loop
      vertex -10 7 27.1
      vertex 10 5 23.6
      vertex -10 5 23.6
    endloop
  endfacet
  facet normal -1 0 0
    outer loop
      vertex -10 5 23.6
      vertex -10 7 28.1
      vertex -10 7 27.1
    endloop
  endfacet
  facet normal -1 -0 0
    outer loop
      vertex -10 7 28.1
      vertex -10 5 23.6
      vertex -10 5 31.6
    endloop
  endfacet
  facet normal 1 0 0
    outer loop
      vertex 10 5 31.6
      vertex 10 7 27.1
      vertex 10 7 28.1
    endloop
  endfacet
  facet normal 1 0 0
    outer loop
      vertex 10 7 27.1
      vertex 10 5 31.6
      vertex 10 5 23.6
    endloop
  endfacet
  facet normal 0 0.868243 0.496139
    outer loop
      vertex 10 26 28.1
      vertex -10 24 31.6
      vertex 10 24 31.6
    endloop
  endfacet
  facet normal 0 0.868243 0.496139
    outer loop
      vertex -10 24 31.6
      vertex 10 26 28.1
      vertex -10 26 28.1
    endloop
  endfacet
  facet normal 0 1 -0
    outer loop
      vertex 10 26 27.1
      vertex -10 26 28.1
      vertex 10 26 28.1
    endloop
  endfacet
  facet normal 0 1 0
    outer loop
      vertex -10 26 28.1
      vertex 10 26 27.1
      vertex -10 26 27.1
    endloop
  endfacet
  facet normal 0 0.868243 -0.496139
    outer loop
      vertex 10 24 23.6
      vertex -10 26 27.1
      vertex 10 26 27.1
    endloop
  endfacet
  facet normal 0 0.868243 -0.496139
    outer loop
      vertex -10 26 27.1
      vertex 10 24 23.6
      vertex -10 24 23.6
    endloop
  endfacet
  facet normal -1 0 0
    outer loop
      vertex -10 24 23.6
      vertex -10 26 28.1
      vertex -10 26 27.1
    endloop
  endfacet
  facet normal -1 -0 0
    outer loop
      vertex -10 26 28.1
      vertex -10 24 23.6
      vertex -10 24 31.6
    endloop
  endfacet
  facet normal 1 0 0
    outer loop
      vertex 10 24 31.6
      vertex 10 26 27.1
      vertex 10 26 28.1
    endloop
  endfacet
  facet normal 1 0 0
    outer loop
      vertex 10 26 27.1
      vertex 10 24 31.6
      vertex 10 24 23.6
    endloop
  endfacet
endsolid OpenSCAD_Model
